<svg width="282" height="8" viewBox="0 0 282 8" fill="none" xmlns="http://www.w3.org/2000/svg">
<path d="M1.29702 7.4097C3.99702 8.3463 6.69703 7.878 9.39703 7.878C12.096 7.878 15.182 7.878 17.882 7.4097C19.81 7.4097 19.81 3.66305 17.882 3.66305C15.182 3.66305 12.096 3.66305 9.39703 3.19472C6.69703 3.19472 3.99702 2.72639 1.29702 3.66305C-0.24598 3.66305 -0.24598 6.473 1.29702 7.4097Z" fill="#FA991C"/>
<path d="M220.952 7.5483C223.99 8.1989 227.23 7.4658 230.335 7.6552C234.268 7.546 238.133 7.8981 241.819 6.7851C243.852 6.2693 243.561 2.87818 241.595 2.93278C238.043 3.12328 234.178 2.77125 230.692 2.50055C227.587 2.31117 223.789 1.49792 220.795 3.23471C218.762 3.75052 219.053 7.1418 220.952 7.5483Z" fill="#FA991C"/>
<path d="M194.276 2.92109C190.661 1.99507 187.321 2.38941 183.759 2.26875C179.64 2.21382 175.911 2.38352 172.014 2.84358C170.9 2.97503 171.397 4.81038 172.9 4.90357C176.24 4.50923 179.634 4.92025 183.196 5.0409C186.758 5.16156 190.93 6.02185 194.27 5.62751C195.94 5.43034 196.168 3.23891 194.276 2.92109Z" fill="#FA991C"/>
<path d="M129.667 5.8124C137.03 8.26683 145.484 7.44873 153.121 5.81241C155.03 5.53969 154.211 2.53979 152.575 3.08523C145.212 3.90338 137.848 3.08522 130.485 2.8125C128.303 2.8125 128.031 5.26741 129.667 5.8124Z" fill="#FA991C"/>
<path d="M104.17 0.980909C96.895 0.565569 89.06 0.118759 82.513 1.62861C80.403 2.04686 82.166 4.83846 84.061 4.67747C90.863 4.2584 99.214 6.88817 105.631 4.83271C107.052 3.83726 106.409 1.10913 104.17 0.980909Z" fill="#FA991C"/>
<path d="M63.276 3.92109C59.661 2.99507 56.321 3.38941 52.759 3.26875C48.64 3.21382 44.911 3.38352 41.014 3.84358C39.9 3.97503 40.397 5.81038 41.9 5.90357C45.24 5.50923 48.634 5.92025 52.196 6.04095C55.758 6.16155 59.93 7.02185 63.27 6.62755C64.94 6.43035 65.168 4.23891 63.276 3.92109Z" fill="#FA991C"/>
<path d="M256.06 7.10918C264.079 8.99767 272.931 7.28264 280.838 4.77529C282.828 4.29407 281.671 1.17177 279.995 1.9171C272.296 3.52357 264.437 3.38257 256.631 3.82406C254.326 4.04116 254.278 6.68995 256.06 7.10918Z" fill="#FA991C"/>
</svg>
