<svg width="373" height="17" viewBox="0 0 373 17" fill="none" xmlns="http://www.w3.org/2000/svg">
<path d="M91.297 11.4097C93.997 12.3463 96.697 11.878 99.397 11.878C102.096 11.878 105.182 11.878 107.882 11.4097C109.81 11.4097 109.81 7.66305 107.882 7.66305C105.182 7.66305 102.096 7.66305 99.397 7.19472C96.697 7.19472 93.997 6.72639 91.297 7.66305C89.754 7.66305 89.754 10.473 91.297 11.4097Z" fill="#FA991C"/>
<path d="M310.952 11.5483C313.99 12.1989 317.23 11.4658 320.335 11.6552C324.268 11.546 328.133 11.8981 331.819 10.7851C333.852 10.2693 333.561 6.87818 331.595 6.93278C328.043 7.12328 324.178 6.77125 320.692 6.50055C317.587 6.31117 313.789 5.49792 310.795 7.23471C308.762 7.75052 309.053 11.1418 310.952 11.5483Z" fill="#FA991C"/>
<path d="M284.276 6.92109C280.661 5.99507 277.321 6.38941 273.759 6.26875C269.64 6.21382 265.911 6.38352 262.014 6.84358C260.9 6.97503 261.397 8.81038 262.9 8.90357C266.24 8.50923 269.634 8.92025 273.196 9.0409C276.758 9.16156 280.93 10.0218 284.27 9.62751C285.94 9.43034 286.168 7.23891 284.276 6.92109Z" fill="#FA991C"/>
<path d="M219.667 9.8124C227.03 12.2668 235.484 11.4487 243.121 9.81241C245.03 9.53969 244.211 6.53979 242.575 7.08523C235.212 7.90338 227.848 7.08522 220.485 6.8125C218.303 6.8125 218.031 9.26741 219.667 9.8124Z" fill="#FA991C"/>
<path d="M194.17 4.98091C186.895 4.56557 179.06 4.11876 172.513 5.62861C170.403 6.04686 172.166 8.83846 174.061 8.67747C180.863 8.2584 189.214 10.8882 195.631 8.83271C197.052 7.83726 196.409 5.10913 194.17 4.98091Z" fill="#FA991C"/>
<path d="M153.276 7.92109C149.661 6.99507 146.321 7.38941 142.759 7.26875C138.64 7.21382 134.911 7.38352 131.014 7.84358C129.9 7.97503 130.397 9.81038 131.9 9.90357C135.24 9.50923 138.634 9.92025 142.196 10.0409C145.758 10.1615 149.93 11.0218 153.27 10.6275C154.94 10.4303 155.168 8.23891 153.276 7.92109Z" fill="#FA991C"/>
<path d="M44.8239 13.6033C47.8042 14.4019 51.084 14.0828 54.1641 14.5089C58.0891 14.762 61.9144 15.3877 65.6665 14.7959C67.7288 14.5499 67.6825 11.7425 65.72 11.616C62.1675 11.4626 58.3423 10.837 54.8896 10.3111C51.8095 9.88505 48.0841 8.88683 44.9772 10.0508C42.9148 10.2968 42.9618 13.1044 44.8239 13.6033Z" fill="#FA991C"/>
<path d="M1.66681 11.8124C9.03021 14.2668 17.4845 13.4487 25.1206 11.8124C27.0296 11.5397 26.2114 8.53979 24.5751 9.08523C17.2117 9.90338 9.84841 9.08522 2.48501 8.8125C0.303212 8.8125 0.0310104 11.2674 1.66681 11.8124Z" fill="#FA991C"/>
<path d="M346.06 11.1092C354.079 12.9977 362.931 11.2826 370.838 8.77529C372.828 8.29407 371.671 5.17177 369.995 5.9171C362.296 7.52357 354.437 7.38257 346.631 7.82406C344.326 8.04116 344.278 10.69 346.06 11.1092Z" fill="#FA991C"/>
</svg>
