<svg width="408" height="17" viewBox="0 0 408 17" fill="none" xmlns="http://www.w3.org/2000/svg">
<g clip-path="url(#clip0)">
<path d="M110.297 11.4095C112.997 12.3461 115.697 11.8778 118.397 11.8778C121.096 11.8778 124.182 11.8778 126.882 11.4095C128.81 11.4095 128.81 7.66285 126.882 7.66285C124.182 7.66285 121.096 7.66285 118.397 7.19452C115.697 7.19452 112.997 6.72619 110.297 7.66285C108.754 7.66285 108.754 10.4728 110.297 11.4095Z" fill="#FA991C"/>
<path d="M329.952 11.5483C332.99 12.1989 336.23 11.4658 339.335 11.6552C343.268 11.546 347.133 11.8981 350.819 10.7851C352.852 10.2693 352.561 6.87819 350.595 6.93278C347.043 7.12328 343.178 6.77125 339.692 6.50055C336.587 6.31117 332.789 5.49792 329.795 7.23471C327.762 7.75052 328.053 11.1418 329.952 11.5483Z" fill="#FA991C"/>
<path d="M370.581 13.3461C375.796 14.7436 382.955 11.8703 387.306 9.04331C389.195 7.95243 387.559 5.11826 385.669 6.20913C383.308 7.57272 380.673 8.46395 378.138 8.98264C375.604 9.50133 372.796 9.54766 370.162 10.4389C368.844 10.8845 369.463 13.0467 370.581 13.3461Z" fill="#FA991C"/>
<path d="M303.276 6.92094C299.661 5.99492 296.321 6.38926 292.759 6.2686C288.64 6.21367 284.911 6.38337 281.014 6.84343C279.9 6.97488 280.397 8.81023 281.9 8.90342C285.24 8.50908 288.634 8.9201 292.196 9.04075C295.758 9.16141 299.93 10.0217 303.27 9.62736C304.94 9.43019 305.168 7.23876 303.276 6.92094Z" fill="#FA991C"/>
<path d="M238.667 9.81227C246.03 12.2667 254.484 11.4486 262.121 9.81228C264.03 9.53956 263.211 6.53966 261.575 7.0851C254.212 7.90325 246.848 7.08509 239.485 6.81237C237.303 6.81237 237.031 9.26728 238.667 9.81227Z" fill="#FA991C"/>
<path d="M213.17 4.98074C205.895 4.5654 198.06 4.11859 191.513 5.62844C189.403 6.04669 191.166 8.83829 193.061 8.6773C199.863 8.25823 208.214 10.888 214.631 8.83254C216.052 7.83709 215.409 5.10896 213.17 4.98074Z" fill="#FA991C"/>
<path d="M172.276 7.92094C168.661 6.99492 165.321 7.38926 161.759 7.2686C157.64 7.21367 153.911 7.38337 150.014 7.84343C148.9 7.97488 149.397 9.81023 150.9 9.90342C154.24 9.50908 157.634 9.9201 161.196 10.0408C164.758 10.1614 168.93 11.0217 172.27 10.6274C173.94 10.4302 174.168 8.23876 172.276 7.92094Z" fill="#FA991C"/>
<path d="M63.8239 13.6032C66.8042 14.4018 70.084 14.0827 73.1641 14.5088C77.0891 14.7619 80.9144 15.3876 84.6665 14.7958C86.7288 14.5498 86.6825 11.7424 84.72 11.6159C81.1675 11.4625 77.3423 10.8369 73.8896 10.311C70.8095 9.88498 67.0841 8.88676 63.9772 10.0507C61.9148 10.2967 61.9618 13.1043 63.8239 13.6032Z" fill="#FA991C"/>
<path d="M20.6668 11.8123C28.0302 14.2667 36.4845 13.4486 44.1206 11.8123C46.0296 11.5396 45.2114 8.53966 43.5751 9.0851C36.2117 9.90325 28.8484 9.08509 21.485 8.81237C19.3032 8.81237 19.031 11.2673 20.6668 11.8123Z" fill="#FA991C"/>
</g>
<defs>
<clipPath id="clip0">
<rect width="408" height="17" fill="white"/>
</clipPath>
</defs>
</svg>
