<svg width="46" height="46" viewBox="0 0 46 46"  fill="none" xmlns="http://www.w3.org/2000/svg">
<path d="M31.984 23C31.984 23.992 31.18 24.797 30.188 24.797H24.797V30.188C24.797 31.18 23.992 31.984 23 31.984C22.008 31.984 21.203 31.18 21.203 30.188V24.797H15.812C14.82 24.797 14.016 23.992 14.016 23C14.016 22.008 14.82 21.203 15.812 21.203H21.203V15.812C21.203 14.82 22.008 14.016 23 14.016C23.992 14.016 24.797 14.82 24.797 15.812V21.203H30.188C31.18 21.203 31.984 22.008 31.984 23Z" fill="#1C768F"/>
<path d="M31.589 5.5523L29.264 4.5895C28.348 4.2097 27.912 3.1586 28.292 2.2418C28.672 1.3249 29.723 0.889205 30.64 1.2694L32.964 2.2321C33.881 2.612 34.316 3.66311 33.936 4.57991C33.558 5.49371 32.508 5.9331 31.589 5.5523Z" fill="#1C768F"/>
<path d="M23 0C23.992 0 24.797 0.804498 24.797 1.7969C24.797 2.7893 23.992 3.5938 23 3.5938C12.275 3.5938 3.594 12.273 3.594 23C3.594 33.725 12.273 42.406 23 42.406C33.725 42.406 42.406 33.727 42.406 23C42.406 22.008 43.211 21.203 44.203 21.203C45.196 21.203 46 22.008 46 23C46 35.711 35.713 46 23 46C10.289 46 0 35.713 0 23C0 10.289 10.287 0 23 0Z" fill="#1C768F"/>
<path d="M37.612 10.167L35.833 8.38804C35.131 7.68664 35.131 6.54884 35.833 5.84724C36.535 5.14554 37.672 5.14544 38.374 5.84724L40.153 7.62604C40.855 8.32804 40.855 9.46604 40.153 10.167C39.451 10.869 38.313 10.869 37.612 10.167Z" fill="#1C768F"/>
<path d="M43.758 17.7079C42.839 18.0889 41.789 17.6499 41.41 16.7359L40.448 14.4119C40.068 13.4949 40.503 12.444 41.42 12.064C42.337 11.684 43.388 12.119 43.768 13.036L44.731 15.3599C45.11 16.2769 44.675 17.3279 43.758 17.7079Z" fill="#1C768F"/>
</svg>
