<svg width="46" height="46" viewBox="0 0 46 46" fill="none" xmlns="http://www.w3.org/2000/svg">
<path d="M31.5891 5.55201L29.2641 4.5895C28.3481 4.2097 27.9121 3.1586 28.2921 2.2418C28.6721 1.3249 29.7231 0.889209 30.6401 1.2694L32.9641 2.2321C33.8811 2.612 34.3161 3.66311 33.9361 4.57991C33.5581 5.49401 32.5081 5.93301 31.5891 5.55201Z" fill="#1C768F"/>
<path d="M23 0C23.992 0 24.797 0.804498 24.797 1.7969C24.797 2.7893 23.992 3.5938 23 3.5938C12.275 3.5938 3.594 12.273 3.594 23C3.594 33.725 12.273 42.406 23 42.406C33.725 42.406 42.406 33.727 42.406 23C42.406 22.008 43.211 21.203 44.203 21.203C45.196 21.203 46 22.008 46 23C46 35.711 35.713 46 23 46C10.289 46 0 35.713 0 23C0 10.289 10.287 0 23 0Z" fill="#1C768F"/>
<path d="M37.6119 10.167L35.8329 8.388C35.1309 7.687 35.1309 6.549 35.8329 5.847C36.5349 5.145 37.6719 5.145 38.3739 5.847L40.1529 7.62599C40.8549 8.32799 40.8549 9.466 40.1529 10.167C39.4509 10.869 38.3129 10.869 37.6119 10.167Z" fill="#1C768F"/>
<path d="M43.758 17.708C42.839 18.089 41.789 17.65 41.41 16.736L40.448 14.412C40.068 13.495 40.503 12.444 41.42 12.064C42.337 11.684 43.388 12.119 43.768 13.036L44.731 15.36C45.11 16.277 44.675 17.328 43.758 17.708Z" fill="#1C768F"/>
<rect x="14" y="21" width="18" height="4" rx="2" fill="#1C768F"/>
</svg>
