<svg width="42" height="43" viewBox="0 0 42 43" fill="none" xmlns="http://www.w3.org/2000/svg">
<path d="M20.7515 0.848877C9.3559 0.848877 0.0848007 10.1243 0.0848007 21.5252C0.0848007 26.5185 1.8635 31.1038 4.8203 34.6808C4.8279 34.6912 4.8286 34.7043 4.8368 34.7139C6.9716 37.2895 9.6528 39.264 12.6406 40.5399C12.675 40.5542 12.7087 40.5699 12.7432 40.5842C12.985 40.6865 13.2295 40.7812 13.4748 40.8737C13.5712 40.9098 13.6676 40.9474 13.7655 40.982C13.977 41.0579 14.1898 41.1301 14.4041 41.1985C14.5411 41.2429 14.6783 41.2865 14.8167 41.3278C15.0062 41.3842 15.1963 41.4383 15.3878 41.4902C15.5559 41.5353 15.7254 41.5774 15.8948 41.618C16.0664 41.6594 16.2386 41.7007 16.4115 41.7376C16.6044 41.7789 16.7994 41.8158 16.995 41.8511C17.1521 41.8804 17.3084 41.9105 17.4669 41.9361C17.6839 41.9714 17.9023 41.9992 18.1214 42.0271C18.2626 42.0451 18.4031 42.0654 18.545 42.0812C18.793 42.1068 19.0431 42.1255 19.2938 42.1428C19.4103 42.1511 19.526 42.1639 19.6431 42.1699C20.0089 42.1902 20.3788 42.2015 20.7515 42.2015C21.1242 42.2015 21.4942 42.1902 21.8613 42.1714C21.9784 42.1646 22.0942 42.1526 22.2106 42.1444C22.4614 42.1263 22.7114 42.1083 22.9594 42.0819C23.1013 42.0669 23.2419 42.0466 23.3831 42.0286C23.6022 42 23.8205 41.9729 24.0375 41.9376C24.1952 41.912 24.3523 41.8819 24.5094 41.8526C24.7043 41.8173 24.8993 41.7804 25.0929 41.7391C25.2658 41.7015 25.4374 41.6609 25.6095 41.6195C25.779 41.5782 25.9485 41.5361 26.1166 41.4917C26.3081 41.4406 26.4982 41.3857 26.6877 41.3293C26.8262 41.288 26.9632 41.2444 27.1003 41.2C27.3146 41.1308 27.5274 41.0594 27.7389 40.9835C27.836 40.9489 27.9325 40.9113 28.0296 40.8744C28.2755 40.7827 28.5194 40.6872 28.7612 40.5857C28.7956 40.5714 28.8294 40.5557 28.8639 40.5414C31.8509 39.2655 34.5328 37.2911 36.6678 34.7153C36.6761 34.7056 36.6769 34.6919 36.6844 34.6822C39.6393 31.1038 41.4182 26.5185 41.4182 21.5252C41.4182 10.1243 32.1471 0.848877 20.7515 0.848877ZM29.1263 38.9068C29.116 38.9121 29.1063 38.9173 29.096 38.9226C28.8501 39.0406 28.6 39.1527 28.3479 39.2617C28.2907 39.2858 28.2342 39.3106 28.177 39.3346C27.9566 39.4271 27.7334 39.5143 27.5088 39.5985C27.4151 39.6331 27.3215 39.6677 27.2271 39.7008C27.028 39.7722 26.8282 39.8406 26.6263 39.9053C26.501 39.9451 26.3749 39.9827 26.2488 40.0203C26.0698 40.0737 25.8899 40.1256 25.708 40.1737C25.5551 40.2143 25.4008 40.2519 25.2465 40.288C25.0846 40.3271 24.9234 40.3662 24.7602 40.4008C24.5818 40.4384 24.4019 40.4707 24.2228 40.503C24.0775 40.5301 23.9328 40.5587 23.7861 40.582C23.5842 40.6135 23.3803 40.6391 23.1771 40.6647C23.0483 40.6812 22.9202 40.7008 22.7899 40.7143C22.5578 40.7391 22.3235 40.7549 22.09 40.7714C21.986 40.7782 21.8827 40.7902 21.7772 40.7955C21.4363 40.8135 21.0946 40.8233 20.7515 40.8233C20.4084 40.8233 20.0667 40.8135 19.7264 40.7955C19.6218 40.7902 19.5184 40.779 19.4137 40.7714C19.1795 40.7557 18.9459 40.7391 18.7138 40.7143C18.5835 40.7008 18.4554 40.6812 18.3266 40.6647C18.1234 40.6391 17.9195 40.6135 17.7176 40.582C17.5709 40.5587 17.4263 40.5301 17.2809 40.503C17.1011 40.4707 16.9213 40.4376 16.7435 40.4008C16.5803 40.3662 16.4184 40.3271 16.2572 40.288C16.1029 40.2512 15.9486 40.2143 15.7956 40.1737C15.6145 40.1256 15.4339 40.073 15.2548 40.0203C15.1288 39.9827 15.0027 39.9451 14.8774 39.9053C14.6755 39.8406 14.4751 39.7722 14.2767 39.7008C14.1823 39.667 14.0886 39.6331 13.9949 39.5985C13.7703 39.5143 13.5471 39.4271 13.3267 39.3346C13.2695 39.3113 13.2137 39.2865 13.1565 39.2617C12.9044 39.1542 12.6543 39.0414 12.4077 38.9226C12.3974 38.9181 12.3877 38.9136 12.3774 38.9076C9.9739 37.7444 7.8507 36.093 6.1278 34.0874C7.4594 29.1817 11.229 25.2269 16.0787 23.6535C16.1746 23.7121 16.2744 23.7644 16.373 23.8196C16.4308 23.852 16.4879 23.8864 16.5466 23.9175C16.7518 24.0263 16.9599 24.1283 17.1727 24.22C17.336 24.2917 17.5048 24.3523 17.6728 24.4144C17.7059 24.4261 17.739 24.4392 17.772 24.4509C18.7062 24.7817 19.7058 24.9712 20.7515 24.9712C21.7972 24.9712 22.7968 24.7817 23.7303 24.4509C23.7634 24.4392 23.7964 24.4261 23.8295 24.4144C23.9975 24.3523 24.1663 24.2917 24.3296 24.22C24.5424 24.1283 24.7505 24.0263 24.9558 23.9175C25.0143 23.8857 25.0715 23.852 25.1294 23.8196C25.2279 23.7644 25.3285 23.7121 25.425 23.6528C30.2747 25.2269 34.0436 29.1817 35.376 34.0868C33.6528 36.0917 31.5299 37.7429 29.1263 38.9068ZM13.1738 16.0115C13.1738 11.8315 16.5734 8.43018 20.7515 8.43018C24.9296 8.43018 28.3293 11.8315 28.3293 16.0115C28.3293 18.6705 26.9508 21.0104 24.8738 22.364C24.6024 22.5404 24.3199 22.6982 24.0299 22.8361C23.9955 22.8526 23.9618 22.8698 23.9273 22.8857C21.9323 23.7934 19.5707 23.7934 17.5758 22.8857C17.5413 22.8698 17.5068 22.8526 17.4731 22.8361C17.1823 22.6982 16.9006 22.5404 16.6292 22.364C14.5522 21.0104 13.1738 18.6705 13.1738 16.0115ZM36.4093 32.7752C34.8477 28.1616 31.2846 24.4329 26.7324 22.6617C28.5531 21.0207 29.7071 18.6512 29.7071 16.0115C29.7071 11.0712 25.6895 7.05178 20.7515 7.05178C15.8135 7.05178 11.7959 11.0712 11.7959 16.0115C11.7959 18.6512 12.9498 21.0207 14.7712 22.6617C10.2191 24.4336 6.6562 28.1616 5.0944 32.7752C2.8122 29.6055 1.4626 25.7211 1.4626 21.5252C1.4626 10.8845 10.1158 2.22728 20.7515 2.22728C31.3872 2.22728 40.0406 10.8845 40.0406 21.5252C40.0406 25.7211 38.6909 29.6055 36.4093 32.7752Z" fill="#032539"/>
</svg>
