<svg width="785" height="740" viewBox="0 0 785 740" fill="none" xmlns="http://www.w3.org/2000/svg">
<path d="M402.91 93.445C401.86 94.3317 400.483 95.0317 398.78 95.545C397.077 96.035 395.222 96.28 393.215 96.28C390.975 96.28 389.073 95.9883 387.51 95.405C385.947 94.7983 384.768 93.97 383.975 92.92C383.182 91.87 382.785 90.6567 382.785 89.28C382.785 87.88 383.182 86.6783 383.975 85.675C384.792 84.6483 385.842 83.9133 387.125 83.47C386.098 83.0033 385.293 82.3033 384.71 81.37C384.127 80.4133 383.835 79.3167 383.835 78.08C383.835 76.7967 384.197 75.6417 384.92 74.615C385.667 73.5883 386.787 72.7717 388.28 72.165C389.773 71.535 391.593 71.22 393.74 71.22C395.257 71.22 396.727 71.3833 398.15 71.71C399.597 72.0367 400.845 72.5033 401.895 73.11L400.88 75.91C398.78 74.79 396.447 74.23 393.88 74.23C391.757 74.23 390.135 74.615 389.015 75.385C387.895 76.1317 387.335 77.1117 387.335 78.325C387.335 79.5383 387.767 80.4717 388.63 81.125C389.493 81.7783 390.73 82.105 392.34 82.105H398.64V85.115H392.2C390.357 85.115 388.91 85.4417 387.86 86.095C386.81 86.7483 386.285 87.7283 386.285 89.035C386.285 90.365 386.88 91.4033 388.07 92.15C389.26 92.8967 391.033 93.27 393.39 93.27C395.023 93.27 396.575 93.0483 398.045 92.605C399.538 92.1383 400.763 91.5083 401.72 90.715L402.91 93.445ZM414.591 96.21C412.701 96.21 411.009 95.8017 409.516 94.985C408.046 94.1683 406.891 93.0483 406.051 91.625C405.211 90.1783 404.791 88.545 404.791 86.725C404.791 84.905 405.211 83.2833 406.051 81.86C406.891 80.4133 408.046 79.2933 409.516 78.5C411.009 77.6833 412.701 77.275 414.591 77.275C416.271 77.275 417.764 77.6133 419.071 78.29C420.401 78.9667 421.428 79.9467 422.151 81.23L419.596 82.875C419.013 81.9883 418.289 81.3233 417.426 80.88C416.563 80.4367 415.606 80.215 414.556 80.215C413.343 80.215 412.246 80.4833 411.266 81.02C410.309 81.5567 409.551 82.3267 408.991 83.33C408.454 84.31 408.186 85.4417 408.186 86.725C408.186 88.0317 408.454 89.1867 408.991 90.19C409.551 91.17 410.309 91.9283 411.266 92.465C412.246 93.0017 413.343 93.27 414.556 93.27C415.606 93.27 416.563 93.0483 417.426 92.605C418.289 92.1617 419.013 91.4967 419.596 90.61L422.151 92.22C421.428 93.5033 420.401 94.495 419.071 95.195C417.764 95.8717 416.271 96.21 414.591 96.21ZM441.879 77.45V96H438.519V80.39H430.539L430.329 84.52C430.213 87.0167 429.991 89.105 429.664 90.785C429.338 92.4417 428.801 93.7717 428.054 94.775C427.308 95.7783 426.269 96.28 424.939 96.28C424.333 96.28 423.644 96.175 422.874 95.965L423.084 93.13C423.388 93.2 423.668 93.235 423.924 93.235C424.858 93.235 425.558 92.8267 426.024 92.01C426.491 91.1933 426.794 90.225 426.934 89.105C427.074 87.985 427.203 86.3867 427.319 84.31L427.634 77.45H441.879ZM465.281 77.45V96H462.061V93.27C461.384 94.2033 460.498 94.9267 459.401 95.44C458.304 95.9533 457.103 96.21 455.796 96.21C453.323 96.21 451.374 95.5333 449.951 94.18C448.528 92.8033 447.816 90.785 447.816 88.125V77.45H451.176V87.74C451.176 89.5367 451.608 90.9017 452.471 91.835C453.334 92.745 454.571 93.2 456.181 93.2C457.954 93.2 459.354 92.6633 460.381 91.59C461.408 90.5167 461.921 89 461.921 87.04V77.45H465.281ZM504.428 77.275C506.761 77.275 508.604 77.9517 509.958 79.305C511.334 80.6583 512.023 82.665 512.023 85.325V96H508.663V85.71C508.663 83.9133 508.243 82.56 507.403 81.65C506.586 80.74 505.408 80.285 503.868 80.285C502.164 80.285 500.811 80.8217 499.808 81.895C498.804 82.945 498.303 84.4617 498.303 86.445V96H494.943V85.71C494.943 83.9133 494.523 82.56 493.683 81.65C492.866 80.74 491.688 80.285 490.148 80.285C488.444 80.285 487.091 80.8217 486.088 81.895C485.084 82.945 484.583 84.4617 484.583 86.445V96H481.223V77.45H484.443V80.215C485.119 79.2583 486.006 78.535 487.103 78.045C488.199 77.5317 489.448 77.275 490.848 77.275C492.294 77.275 493.578 77.5667 494.698 78.15C495.818 78.7333 496.681 79.585 497.288 80.705C497.988 79.6317 498.956 78.7917 500.193 78.185C501.453 77.5783 502.864 77.275 504.428 77.275ZM525.7 96.42C523.04 96.42 521.01 95.79 519.61 94.53C518.233 93.2467 517.545 91.415 517.545 89.035V77.45H520.905V84.625C521.442 84.0883 522.188 83.6333 523.145 83.26C524.125 82.8867 525.245 82.7 526.505 82.7C528.768 82.7 530.53 83.2833 531.79 84.45C533.073 85.5933 533.715 87.2033 533.715 89.28C533.715 91.4733 532.992 93.2117 531.545 94.495C530.098 95.7783 528.15 96.42 525.7 96.42ZM536.41 77.45H539.77V96H536.41V77.45ZM525.735 93.865C527.182 93.865 528.302 93.445 529.095 92.605C529.912 91.7417 530.32 90.645 530.32 89.315C530.32 88.0783 529.912 87.075 529.095 86.305C528.278 85.535 527.112 85.15 525.595 85.15C524.498 85.15 523.542 85.3717 522.725 85.815C521.932 86.2583 521.325 86.8767 520.905 87.67V89.315C520.905 90.7383 521.313 91.8583 522.13 92.675C522.97 93.4683 524.172 93.865 525.735 93.865Z" fill="#FA991C"/>
<path d="M402.91 93.445L403.233 93.827L403.517 93.5867L403.368 93.2452L402.91 93.445ZM398.78 95.545L398.918 96.0256L398.924 96.0237L398.78 95.545ZM387.51 95.405L387.329 95.8712L387.335 95.8735L387.51 95.405ZM383.975 92.92L384.374 92.6186L383.975 92.92ZM383.975 85.675L383.584 85.3637L383.583 85.3649L383.975 85.675ZM387.125 83.47L387.288 83.9426L388.473 83.5334L387.332 83.0148L387.125 83.47ZM384.71 81.37L384.283 81.6303L384.286 81.635L384.71 81.37ZM384.92 74.615L384.516 74.3209L384.511 74.327L384.92 74.615ZM388.28 72.165L388.468 72.6283L388.474 72.6257L388.28 72.165ZM398.15 71.71L398.038 72.1973L398.04 72.1977L398.15 71.71ZM401.895 73.11L402.365 73.2804L402.508 72.8866L402.145 72.6771L401.895 73.11ZM400.88 75.91L400.645 76.3512L401.154 76.6226L401.35 76.0804L400.88 75.91ZM389.015 75.385L389.292 75.8011L389.298 75.797L389.015 75.385ZM388.63 81.125L388.328 81.5237L388.63 81.125ZM398.64 82.105H399.14V81.605H398.64V82.105ZM398.64 85.115V85.615H399.14V85.115H398.64ZM388.07 92.15L387.804 92.5735L388.07 92.15ZM398.045 92.605L398.189 93.0837L398.194 93.0822L398.045 92.605ZM401.72 90.715L402.178 90.5152L401.913 89.9057L401.401 90.3301L401.72 90.715ZM402.587 93.063C401.603 93.8946 400.292 94.5671 398.636 95.0663L398.924 96.0237C400.675 95.4962 402.117 94.7687 403.233 93.827L402.587 93.063ZM398.642 95.0645C396.989 95.54 395.181 95.78 393.215 95.78V96.78C395.262 96.78 397.164 96.53 398.918 96.0255L398.642 95.0645ZM393.215 95.78C391.016 95.78 389.177 95.4932 387.685 94.9366L387.335 95.8735C388.97 96.4834 390.934 96.78 393.215 96.78V95.78ZM387.691 94.9389C386.191 94.3567 385.098 93.5767 384.374 92.6186L383.576 93.2214C384.439 94.3633 385.703 95.24 387.329 95.8711L387.691 94.9389ZM384.374 92.6186C383.649 91.6596 383.285 90.5532 383.285 89.28H382.285C382.285 90.7601 382.714 92.0804 383.576 93.2214L384.374 92.6186ZM383.285 89.28C383.285 87.9812 383.65 86.8917 384.367 85.9851L383.583 85.3649C382.713 86.465 382.285 87.7788 382.285 89.28H383.285ZM384.366 85.9863C385.122 85.0366 386.091 84.3561 387.288 83.9426L386.962 82.9974C385.592 83.4706 384.462 84.26 383.584 85.3637L384.366 85.9863ZM387.332 83.0148C386.392 82.5878 385.664 81.9528 385.134 81.105L384.286 81.635C384.923 82.6538 385.804 83.4189 386.918 83.9252L387.332 83.0148ZM385.137 81.1097C384.606 80.2394 384.335 79.2347 384.335 78.08H383.335C383.335 79.3987 383.647 80.5872 384.283 81.6303L385.137 81.1097ZM384.335 78.08C384.335 76.8974 384.666 75.8434 385.329 74.903L384.511 74.327C383.727 75.4399 383.335 76.696 383.335 78.08H384.335ZM385.324 74.9091C386.003 73.9757 387.038 73.2092 388.468 72.6282L388.092 71.7018C386.535 72.3342 385.33 73.2009 384.516 74.3209L385.324 74.9091ZM388.474 72.6257C389.89 72.0286 391.64 71.72 393.74 71.72V70.72C391.547 70.72 389.657 71.0414 388.086 71.7043L388.474 72.6257ZM393.74 71.72C395.22 71.72 396.653 71.8794 398.038 72.1973L398.262 71.2227C396.8 70.8873 395.293 70.72 393.74 70.72V71.72ZM398.04 72.1977C399.448 72.5157 400.647 72.9664 401.645 73.5429L402.145 72.6771C401.043 72.0403 399.745 71.5577 398.26 71.2223L398.04 72.1977ZM401.425 72.9396L400.41 75.7396L401.35 76.0804L402.365 73.2804L401.425 72.9396ZM401.115 75.4688C398.937 74.3072 396.522 73.73 393.88 73.73V74.73C396.371 74.73 398.623 75.2728 400.645 76.3512L401.115 75.4688ZM393.88 73.73C391.708 73.73 389.97 74.1217 388.732 74.973L389.298 75.797C390.3 75.1083 391.805 74.73 393.88 74.73V73.73ZM388.738 74.969C387.496 75.7964 386.835 76.9241 386.835 78.325H387.835C387.835 77.2993 388.294 76.4669 389.292 75.801L388.738 74.969ZM386.835 78.325C386.835 79.6733 387.324 80.7635 388.328 81.5237L388.932 80.7263C388.21 80.1798 387.835 79.4034 387.835 78.325H386.835ZM388.328 81.5237C389.312 82.2679 390.672 82.605 392.34 82.605V81.605C390.788 81.605 389.675 81.2888 388.932 80.7263L388.328 81.5237ZM392.34 82.605H398.64V81.605H392.34V82.605ZM398.14 82.105V85.115H399.14V82.105H398.14ZM398.64 84.615H392.2V85.615H398.64V84.615ZM392.2 84.615C390.306 84.615 388.755 84.9493 387.596 85.6705L388.124 86.5195C389.065 85.9341 390.407 85.615 392.2 85.615V84.615ZM387.596 85.6705C386.389 86.4211 385.785 87.5674 385.785 89.035H386.785C386.785 87.8893 387.231 87.0755 388.124 86.5195L387.596 85.6705ZM385.785 89.035C385.785 90.5485 386.478 91.7416 387.804 92.5735L388.336 91.7265C387.282 91.065 386.785 90.1815 386.785 89.035H385.785ZM387.804 92.5735C389.111 93.3936 390.996 93.77 393.39 93.77V92.77C391.071 92.77 389.409 92.3998 388.336 91.7265L387.804 92.5735ZM393.39 93.77C395.069 93.77 396.67 93.542 398.189 93.0837L397.901 92.1263C396.48 92.5546 394.978 92.77 393.39 92.77V93.77ZM398.194 93.0822C399.734 92.601 401.021 91.944 402.039 91.0999L401.401 90.3301C400.505 91.0726 399.343 91.6757 397.896 92.1278L398.194 93.0822ZM401.262 90.9148L402.452 93.6448L403.368 93.2452L402.178 90.5152L401.262 90.9148ZM409.516 94.985L409.273 95.4221L409.276 95.4237L409.516 94.985ZM406.051 91.625L405.619 91.8761L405.62 91.8791L406.051 91.625ZM406.051 81.86L406.482 82.1141L406.483 82.1111L406.051 81.86ZM409.516 78.5L409.753 78.94L409.756 78.9387L409.516 78.5ZM419.071 78.29L418.841 78.734L418.844 78.7356L419.071 78.29ZM422.151 81.23L422.422 81.6504L422.818 81.3952L422.587 80.9845L422.151 81.23ZM419.596 82.875L419.178 83.1498L419.45 83.5634L419.867 83.2954L419.596 82.875ZM417.426 80.88L417.198 81.3248L417.426 80.88ZM411.266 81.02L411.026 80.5814L411.021 80.5839L411.266 81.02ZM408.991 83.33L408.554 83.0863L408.552 83.0898L408.991 83.33ZM408.991 90.19L408.55 90.4259L408.557 90.4381L408.991 90.19ZM411.266 92.465L411.021 92.9011L411.026 92.9035L411.266 92.465ZM419.596 90.61L419.863 90.187L419.448 89.9256L419.178 90.3352L419.596 90.61ZM422.151 92.22L422.587 92.4655L422.82 92.0508L422.418 91.797L422.151 92.22ZM419.071 95.195L419.301 95.639L419.304 95.6375L419.071 95.195ZM414.591 95.71C412.775 95.71 411.168 95.3185 409.756 94.5463L409.276 95.4237C410.851 96.2849 412.627 96.71 414.591 96.71V95.71ZM409.759 94.5479C408.365 93.7737 407.276 92.7162 406.482 91.3709L405.62 91.8791C406.506 93.3805 407.727 94.563 409.273 95.4221L409.759 94.5479ZM406.483 91.3739C405.692 90.0102 405.291 88.4648 405.291 86.725H404.291C404.291 88.6252 404.73 90.3465 405.619 91.8761L406.483 91.3739ZM405.291 86.725C405.291 84.9851 405.692 83.4528 406.482 82.1141L405.62 81.6059C404.73 83.1138 404.291 84.8249 404.291 86.725H405.291ZM406.483 82.1111C407.277 80.744 408.365 79.6895 409.753 78.94L409.279 78.06C407.727 78.8972 406.505 80.0826 405.619 81.6089L406.483 82.1111ZM409.756 78.9387C411.168 78.1665 412.775 77.775 414.591 77.775V76.775C412.627 76.775 410.851 77.2001 409.276 78.0613L409.756 78.9387ZM414.591 77.775C416.202 77.775 417.615 78.099 418.841 78.734L419.301 77.846C417.914 77.1276 416.34 76.775 414.591 76.775V77.775ZM418.844 78.7356C420.088 79.3682 421.041 80.2792 421.715 81.4755L422.587 80.9845C421.814 79.6142 420.714 78.5651 419.298 77.8444L418.844 78.7356ZM421.88 80.8096L419.325 82.4546L419.867 83.2954L422.422 81.6504L421.88 80.8096ZM420.014 82.6002C419.388 81.6484 418.601 80.9216 417.654 80.4352L417.198 81.3248C417.977 81.7251 418.638 82.3283 419.178 83.1498L420.014 82.6002ZM417.654 80.4352C416.715 79.9527 415.679 79.715 414.556 79.715V80.715C415.533 80.715 416.411 80.9207 417.198 81.3248L417.654 80.4352ZM414.556 79.715C413.266 79.715 412.086 80.0011 411.026 80.5815L411.506 81.4585C412.406 80.9656 413.419 80.715 414.556 80.715V79.715ZM411.021 80.5839C409.98 81.168 409.157 82.0064 408.554 83.0863L409.428 83.5737C409.945 82.647 410.638 81.9454 411.511 81.4561L411.021 80.5839ZM408.552 83.0898C407.97 84.1538 407.686 85.3703 407.686 86.725H408.686C408.686 85.513 408.939 84.4662 409.43 83.5702L408.552 83.0898ZM407.686 86.725C407.686 88.1016 407.969 89.3398 408.55 90.4258L409.432 89.9542C408.939 89.0335 408.686 87.9617 408.686 86.725H407.686ZM408.557 90.4381C409.16 91.4944 409.983 92.3187 411.021 92.9011L411.511 92.0289C410.635 91.5379 409.942 90.8456 409.425 89.9419L408.557 90.4381ZM411.026 92.9035C412.086 93.4839 413.266 93.77 414.556 93.77V92.77C413.419 92.77 412.406 92.5194 411.506 92.0265L411.026 92.9035ZM414.556 93.77C415.679 93.77 416.715 93.5323 417.654 93.0498L417.198 92.1602C416.411 92.5643 415.533 92.77 414.556 92.77V93.77ZM417.654 93.0498C418.601 92.5634 419.388 91.8366 420.014 90.8848L419.178 90.3352C418.638 91.1567 417.977 91.7599 417.198 92.1602L417.654 93.0498ZM419.329 91.033L421.884 92.643L422.418 91.797L419.863 90.187L419.329 91.033ZM421.715 91.9745C421.04 93.1723 420.085 94.0964 418.838 94.7525L419.304 95.6375C420.717 94.8936 421.815 93.8344 422.587 92.4655L421.715 91.9745ZM418.841 94.751C417.615 95.386 416.202 95.71 414.591 95.71V96.71C416.34 96.71 417.914 96.3574 419.301 95.639L418.841 94.751ZM441.879 77.45H442.379V76.95H441.879V77.45ZM441.879 96V96.5H442.379V96H441.879ZM438.519 96H438.019V96.5H438.519V96ZM438.519 80.39H439.019V79.89H438.519V80.39ZM430.539 80.39V79.89H430.064L430.04 80.3646L430.539 80.39ZM430.329 84.52L429.83 84.4946L429.83 84.4967L430.329 84.52ZM429.664 90.785L430.155 90.8817L430.155 90.8804L429.664 90.785ZM428.054 94.775L428.455 95.0735L428.054 94.775ZM422.874 95.965L422.376 95.9281L422.345 96.339L422.743 96.4474L422.874 95.965ZM423.084 93.13L423.197 92.6428L422.629 92.5117L422.586 93.0931L423.084 93.13ZM426.024 92.01L426.458 92.2581L426.024 92.01ZM426.934 89.105L427.43 89.167L426.934 89.105ZM427.319 84.31L427.818 84.338L427.819 84.3329L427.319 84.31ZM427.634 77.45V76.95H427.157L427.135 77.4271L427.634 77.45ZM441.379 77.45V96H442.379V77.45H441.379ZM441.879 95.5H438.519V96.5H441.879V95.5ZM439.019 96V80.39H438.019V96H439.019ZM438.519 79.89H430.539V80.89H438.519V79.89ZM430.04 80.3646L429.83 84.4946L430.829 84.5454L431.039 80.4154L430.04 80.3646ZM429.83 84.4967C429.714 86.9791 429.494 89.0415 429.173 90.6896L430.155 90.8804C430.488 89.1685 430.711 87.0543 430.829 84.5433L429.83 84.4967ZM429.174 90.6883C428.857 92.2961 428.343 93.55 427.653 94.4765L428.455 95.0735C429.259 93.9933 429.818 92.5872 430.155 90.8817L429.174 90.6883ZM427.653 94.4765C427.008 95.3439 426.123 95.78 424.939 95.78V96.78C426.416 96.78 427.608 96.2127 428.455 95.0735L427.653 94.4765ZM424.939 95.78C424.388 95.78 423.746 95.6844 423.006 95.4826L422.743 96.4474C423.543 96.6656 424.277 96.78 424.939 96.78V95.78ZM423.373 96.0019L423.583 93.1669L422.586 93.0931L422.376 95.9281L423.373 96.0019ZM422.972 93.6172C423.304 93.694 423.623 93.735 423.924 93.735V92.735C423.712 92.735 423.471 92.706 423.197 92.6428L422.972 93.6172ZM423.924 93.735C425.039 93.735 425.904 93.229 426.458 92.2581L425.59 91.7619C425.212 92.4243 424.676 92.735 423.924 92.735V93.735ZM426.458 92.2581C426.964 91.3738 427.284 90.3397 427.43 89.167L426.438 89.043C426.305 90.1103 426.018 91.0128 425.59 91.7619L426.458 92.2581ZM427.43 89.167C427.572 88.03 427.702 86.4183 427.818 84.338L426.82 84.282C426.704 86.355 426.576 87.94 426.438 89.043L427.43 89.167ZM427.819 84.3329L428.134 77.4729L427.135 77.4271L426.82 84.2871L427.819 84.3329ZM427.634 77.95H441.879V76.95H427.634V77.95ZM465.281 77.45H465.781V76.95H465.281V77.45ZM465.281 96V96.5H465.781V96H465.281ZM462.061 96H461.561V96.5H462.061V96ZM462.061 93.27H462.561V91.7285L461.656 92.9765L462.061 93.27ZM459.401 95.44L459.613 95.8928L459.401 95.44ZM449.951 94.18L449.603 94.5394L449.607 94.5424L449.951 94.18ZM447.816 77.45V76.95H447.316V77.45H447.816ZM451.176 77.45H451.676V76.95H451.176V77.45ZM452.471 91.835L452.104 92.1745L452.108 92.1791L452.471 91.835ZM460.381 91.59L460.742 91.9356L460.381 91.59ZM461.921 77.45V76.95H461.421V77.45H461.921ZM464.781 77.45V96H465.781V77.45H464.781ZM465.281 95.5H462.061V96.5H465.281V95.5ZM462.561 96V93.27H461.561V96H462.561ZM461.656 92.9765C461.032 93.8378 460.213 94.5079 459.189 94.9872L459.613 95.8928C460.782 95.3455 461.737 94.5689 462.466 93.5635L461.656 92.9765ZM459.189 94.9872C458.164 95.467 457.035 95.71 455.796 95.71V96.71C457.17 96.71 458.445 96.4396 459.613 95.8928L459.189 94.9872ZM455.796 95.71C453.416 95.71 451.604 95.0613 450.296 93.8176L449.607 94.5424C451.145 96.0054 453.229 96.71 455.796 96.71V95.71ZM450.299 93.8206C449.003 92.5671 448.316 90.6977 448.316 88.125H447.316C447.316 90.8723 448.053 93.0396 449.603 94.5394L450.299 93.8206ZM448.316 88.125V77.45H447.316V88.125H448.316ZM447.816 77.95H451.176V76.95H447.816V77.95ZM450.676 77.45V87.74H451.676V77.45H450.676ZM450.676 87.74C450.676 89.6106 451.125 91.1166 452.104 92.1745L452.838 91.4955C452.09 90.6867 451.676 89.4628 451.676 87.74H450.676ZM452.108 92.1791C453.091 93.2149 454.475 93.7 456.181 93.7V92.7C454.667 92.7 453.578 92.2751 452.834 91.4909L452.108 92.1791ZM456.181 93.7C458.062 93.7 459.603 93.1265 460.742 91.9356L460.02 91.2444C459.106 92.2002 457.847 92.7 456.181 92.7V93.7ZM460.742 91.9356C461.884 90.7425 462.421 89.0864 462.421 87.04H461.421C461.421 88.9136 460.932 90.2908 460.02 91.2444L460.742 91.9356ZM462.421 87.04V77.45H461.421V87.04H462.421ZM461.921 77.95H465.281V76.95H461.921V77.95ZM509.958 79.305L509.604 79.6586L509.607 79.6616L509.958 79.305ZM512.023 96V96.5H512.523V96H512.023ZM508.663 96H508.163V96.5H508.663V96ZM507.403 81.65L507.031 81.984L507.035 81.9891L507.403 81.65ZM499.808 81.895L500.169 82.2404L500.173 82.2364L499.808 81.895ZM498.303 96V96.5H498.803V96H498.303ZM494.943 96H494.443V96.5H494.943V96ZM493.683 81.65L493.311 81.984L493.315 81.9891L493.683 81.65ZM486.088 81.895L486.449 82.2404L486.453 82.2364L486.088 81.895ZM484.583 96V96.5H485.083V96H484.583ZM481.223 96H480.723V96.5H481.223V96ZM481.223 77.45V76.95H480.723V77.45H481.223ZM484.443 77.45H484.943V76.95H484.443V77.45ZM484.443 80.215H483.943V81.7877L484.851 80.5037L484.443 80.215ZM487.103 78.045L487.307 78.5016L487.315 78.4978L487.103 78.045ZM494.698 78.15L494.929 77.7065L494.698 78.15ZM497.288 80.705L496.848 80.9431L497.248 81.6813L497.707 80.9781L497.288 80.705ZM500.193 78.185L499.976 77.7345L499.973 77.7361L500.193 78.185ZM504.428 77.775C506.659 77.775 508.364 78.4188 509.604 79.6586L510.311 78.9514C508.844 77.4845 506.863 76.775 504.428 76.775V77.775ZM509.607 79.6616C510.857 80.8899 511.523 82.7472 511.523 85.325H512.523C512.523 82.5828 511.812 80.4268 510.308 78.9484L509.607 79.6616ZM511.523 85.325V96H512.523V85.325H511.523ZM512.023 95.5H508.663V96.5H512.023V95.5ZM509.163 96V85.71H508.163V96H509.163ZM509.163 85.71C509.163 83.8437 508.727 82.3475 507.77 81.3109L507.035 81.9891C507.758 82.7725 508.163 83.983 508.163 85.71H509.163ZM507.775 81.316C506.84 80.2742 505.51 79.785 503.868 79.785V80.785C505.305 80.785 506.332 81.2058 507.031 81.984L507.775 81.316ZM503.868 79.785C502.05 79.785 500.556 80.3627 499.443 81.5536L500.173 82.2364C501.067 81.2806 502.279 80.785 503.868 80.785V79.785ZM499.446 81.5496C498.326 82.7222 497.803 84.3808 497.803 86.445H498.803C498.803 84.5425 499.283 83.1678 500.169 82.2404L499.446 81.5496ZM497.803 86.445V96H498.803V86.445H497.803ZM498.303 95.5H494.943V96.5H498.303V95.5ZM495.443 96V85.71H494.443V96H495.443ZM495.443 85.71C495.443 83.8437 495.007 82.3475 494.05 81.3109L493.315 81.9891C494.038 82.7725 494.443 83.983 494.443 85.71H495.443ZM494.055 81.316C493.12 80.2742 491.79 79.785 490.148 79.785V80.785C491.585 80.785 492.612 81.2058 493.311 81.984L494.055 81.316ZM490.148 79.785C488.33 79.785 486.836 80.3627 485.723 81.5536L486.453 82.2364C487.347 81.2806 488.559 80.785 490.148 80.785V79.785ZM485.726 81.5496C484.606 82.7222 484.083 84.3808 484.083 86.445H485.083C485.083 84.5425 485.563 83.1678 486.449 82.2404L485.726 81.5496ZM484.083 86.445V96H485.083V86.445H484.083ZM484.583 95.5H481.223V96.5H484.583V95.5ZM481.723 96V77.45H480.723V96H481.723ZM481.223 77.95H484.443V76.95H481.223V77.95ZM483.943 77.45V80.215H484.943V77.45H483.943ZM484.851 80.5037C485.475 79.6222 486.29 78.9559 487.307 78.5015L486.899 77.5885C485.722 78.1141 484.764 78.8945 484.035 79.9263L484.851 80.5037ZM487.315 78.4978C488.335 78.0201 489.51 77.775 490.848 77.775V76.775C489.386 76.775 488.063 77.0433 486.891 77.5922L487.315 78.4978ZM490.848 77.775C492.226 77.775 493.428 78.0524 494.467 78.5935L494.929 77.7065C493.728 77.081 492.363 76.775 490.848 76.775V77.775ZM494.467 78.5935C495.498 79.1303 496.289 79.9101 496.848 80.9431L497.727 80.4669C497.074 79.2599 496.138 78.3364 494.929 77.7065L494.467 78.5935ZM497.707 80.9781C498.354 79.9858 499.251 79.204 500.413 78.6339L499.973 77.7361C498.661 78.3793 497.622 79.2775 496.869 80.4319L497.707 80.9781ZM500.41 78.6355C501.594 78.0651 502.931 77.775 504.428 77.775V76.775C502.798 76.775 501.311 77.0916 499.976 77.7345L500.41 78.6355ZM519.61 94.53L519.269 94.8958L519.276 94.9016L519.61 94.53ZM517.545 77.45V76.95H517.045V77.45H517.545ZM520.905 77.45H521.405V76.95H520.905V77.45ZM520.905 84.625H520.405V85.8321L521.259 84.9786L520.905 84.625ZM523.145 83.26L522.967 82.7927L522.963 82.7942L523.145 83.26ZM531.79 84.45L531.45 84.8169L531.458 84.8233L531.79 84.45ZM531.545 94.495L531.213 94.121L531.545 94.495ZM536.41 77.45V76.95H535.91V77.45H536.41ZM539.77 77.45H540.27V76.95H539.77V77.45ZM539.77 96V96.5H540.27V96H539.77ZM536.41 96H535.91V96.5H536.41V96ZM529.095 92.605L528.732 92.2614L528.732 92.2617L529.095 92.605ZM522.725 85.815L522.487 85.3755L522.481 85.3785L522.725 85.815ZM520.905 87.67L520.463 87.4361L520.405 87.5458V87.67H520.905ZM522.13 92.675L521.777 93.0286L521.782 93.0336L521.787 93.0385L522.13 92.675ZM525.7 95.92C523.113 95.92 521.221 95.3071 519.945 94.1584L519.276 94.9016C520.799 96.2729 522.967 96.92 525.7 96.92V95.92ZM519.951 94.1643C518.701 92.9992 518.045 91.3153 518.045 89.035H517.045C517.045 91.5147 517.766 93.4941 519.269 94.8957L519.951 94.1643ZM518.045 89.035V77.45H517.045V89.035H518.045ZM517.545 77.95H520.905V76.95H517.545V77.95ZM520.405 77.45V84.625H521.405V77.45H520.405ZM521.259 84.9786C521.732 84.5048 522.413 84.0824 523.327 83.7258L522.963 82.7942C521.964 83.1843 521.151 83.6719 520.552 84.2714L521.259 84.9786ZM523.323 83.7272C524.236 83.3794 525.294 83.2 526.505 83.2V82.2C525.196 82.2 524.014 82.3939 522.967 82.7928L523.323 83.7272ZM526.505 83.2C528.684 83.2 530.309 83.7601 531.45 84.8169L532.13 84.0831C530.751 82.8065 528.853 82.2 526.505 82.2V83.2ZM531.458 84.8233C532.612 85.8522 533.215 87.3136 533.215 89.28H534.215C534.215 87.093 533.535 85.3344 532.123 84.0767L531.458 84.8233ZM533.215 89.28C533.215 91.3516 532.538 92.9458 531.213 94.121L531.877 94.869C533.446 93.4775 534.215 91.595 534.215 89.28H533.215ZM531.213 94.121C529.881 95.3033 528.062 95.92 525.7 95.92V96.92C528.239 96.92 530.316 96.2534 531.877 94.869L531.213 94.121ZM536.41 77.95H539.77V76.95H536.41V77.95ZM539.27 77.45V96H540.27V77.45H539.27ZM539.77 95.5H536.41V96.5H539.77V95.5ZM536.91 96V77.45H535.91V96H536.91ZM525.735 94.365C527.282 94.365 528.548 93.9123 529.459 92.9483L528.732 92.2617C528.055 92.9777 527.081 93.365 525.735 93.365V94.365ZM529.458 92.9486C530.374 91.9811 530.82 90.7563 530.82 89.315H529.82C529.82 90.5337 529.45 91.5022 528.732 92.2614L529.458 92.9486ZM530.82 89.315C530.82 87.9562 530.366 86.8158 529.438 85.9412L528.752 86.6688C529.458 87.3342 529.82 88.2005 529.82 89.315H530.82ZM529.438 85.9412C528.5 85.0568 527.194 84.65 525.595 84.65V85.65C527.03 85.65 528.057 86.0132 528.752 86.6688L529.438 85.9412ZM525.595 84.65C524.43 84.65 523.389 84.8859 522.487 85.3756L522.964 86.2544C523.695 85.8574 524.567 85.65 525.595 85.65V84.65ZM522.481 85.3785C521.605 85.8683 520.929 86.5564 520.463 87.4361L521.347 87.9039C521.721 87.1969 522.259 86.6484 522.969 86.2515L522.481 85.3785ZM520.405 87.67V89.315H521.405V87.67H520.405ZM520.405 89.315C520.405 90.8382 520.845 92.0973 521.777 93.0286L522.484 92.3214C521.782 91.6194 521.405 90.6384 521.405 89.315H520.405ZM521.787 93.0385C522.748 93.9466 524.09 94.365 525.735 94.365V93.365C524.254 93.365 523.192 92.99 522.473 92.3115L521.787 93.0385Z" fill="#C17717"/>
<path d="M367.698 119.229C365.476 118.266 363.835 116.985 361.92 115.489C360.022 113.62 358.979 111.645 356.5 110.096C354.842 109.187 352.827 109.932 352.777 111.052C352.592 115.16 360.301 120.022 365.906 121.308C368.418 122.11 369.919 120.191 367.698 119.229Z" fill="#032539"/>
<path d="M353.977 87.4046C354.398 84.5453 355.983 81.7969 358.713 79.5451C360.845 77.6221 364.388 76.8007 366.802 75.0985C367.718 74.2195 366.306 73.1182 365.125 73.392C355.763 73.6578 351.31 81.7375 351.367 86.962C351.016 88.2815 353.925 88.5594 353.977 87.4046Z" fill="#032539"/>
<path d="M399.739 49.808C401.533 49.1994 400.749 46.9787 398.671 47.3651C391.262 48.412 385.775 52.5687 382.35 56.7273C381.728 57.4481 383.452 58.3936 384.073 57.6728C388.37 53.7923 394.055 51.8002 399.739 49.808Z" fill="#032539"/>
<path d="M451.697 38.5887C444.442 38.0887 436.256 38.8475 430.883 41.7999C429.39 42.62 431.641 44.3749 433.133 43.5548C438.489 40.9857 445.745 41.4858 451.893 40.725C453.93 40.7272 454.016 38.8103 451.697 38.5887Z" fill="#032539"/>
<path d="M506.797 44.8504C504.01 43.4531 500.622 42.7524 497.819 41.7306C494.448 40.6545 491.369 39.4179 487.723 38.127C486.037 37.589 484.835 38.9823 486.52 39.5203C491.818 42.1001 499.319 46.3984 505.87 46.4585C507.572 46.6211 508.19 45.5487 506.797 44.8504Z" fill="#032539"/>
<path d="M581.95 83.7107C581.677 83.4971 581.677 83.4971 581.404 83.2835C581.404 83.2835 581.404 83.2835 581.13 83.07C580.857 82.8564 580.857 82.8564 580.583 82.6425C580.31 82.4293 580.036 82.2154 579.763 82.0018C579.216 81.5747 578.67 81.1479 578.123 80.7204C577.303 80.0797 576.209 79.2255 575.099 78.7445C573.732 77.6767 571.411 78.954 572.778 80.0218C573.598 80.6625 574.691 81.5168 575.221 82.3172L576.862 83.5985C577.135 83.8121 577.409 84.026 577.682 84.2392C577.955 84.4528 577.955 84.4528 578.229 84.6667C578.502 84.8803 578.776 85.0938 579.049 85.3074C579.869 85.9481 581.013 85.6826 581.593 85.3633C582.174 85.0443 582.481 84.5108 581.95 83.7107Z" fill="#032539"/>
<path d="M577.951 106.643C578.3 105.334 575.132 104.84 574.503 105.931C573.542 107.948 573.159 110.021 572.199 112.038C571.518 114.274 569.98 116.236 569.019 118.253C568.39 119.344 570.93 120.928 572.136 119.893C577.208 116.734 576.887 110.951 577.951 106.643Z" fill="#032539"/>
<path d="M551.373 139.527C552.624 137.712 554.457 135.953 556.572 134.415C558.089 133.206 555.846 131.058 553.748 132.211C551.35 133.529 549.234 135.068 547.401 136.827C545.868 138.421 543.735 140.345 543.649 142.271C543.897 143.262 545.026 144.143 546.508 143.705C549.171 142.992 549.84 141.122 551.373 139.527Z" fill="#032539"/>
<path d="M516.933 146.534C513.71 147.187 510.503 147.457 507.297 147.727C504.09 147.997 500.917 147.503 498.255 148.592C497.064 149.247 497.872 150.668 499.011 151.161C502.166 152.038 506.265 151.277 509.192 150.788C512.696 150.354 515.64 149.483 518.864 148.831C520.913 148.45 518.983 146.154 516.933 146.534Z" fill="#032539"/>
<path d="M471.407 149.032C468.266 148.542 464.832 148.214 461.414 147.508C457.996 146.802 454.318 145.501 451.127 146.146C449.965 146.416 449.62 147.713 450.453 148.363C452.675 150.095 456.977 150.316 460.117 150.805C463.829 151.35 467.559 151.515 470.994 151.843C473.856 152.116 474.252 149.683 471.407 149.032Z" fill="#032539"/>
<path d="M553.11 61.733C550.751 60.0308 547.62 58.9485 545.145 57.6157C542.129 56.1641 539.441 54.5872 536.213 52.8915C534.705 52.1657 533.161 53.4055 534.669 54.1314C539.175 57.2916 545.384 62.4046 551.78 63.2169C553.403 63.5734 554.291 62.5839 553.11 61.733Z" fill="#032539"/>
<path d="M419.859 146.715C417.685 144.63 414.931 142.866 412.176 141.101C409.421 139.336 405.844 136.931 401.621 136.339C399.364 136.123 398.442 137.724 399.52 138.953C401.419 140.823 405.336 141.948 407.834 143.125C411.17 144.57 414.489 146.389 417.534 147.993C419.194 148.903 420.39 147.516 419.859 146.715Z" fill="#032539"/>
<g clip-path="url(#clip0)">
<path d="M363.523 124.885C362.688 117.889 358.487 113.275 355.734 107.131C355.131 105.536 357.15 104.107 358.427 105.226C363.435 110.281 365.985 117.58 365.912 124.712C365.944 126.206 364.127 126.481 363.523 124.885Z" fill="#032539"/>
<path d="M321.623 67.4365C331.673 68.9198 338.895 76.4502 343.965 84.4911C344.905 85.8483 342.551 87.5145 341.611 86.1573C336.338 79.2705 329.384 73.5738 321.016 70.9009C318.73 70.4957 319.337 67.0319 321.623 67.4365Z" fill="#032539"/>
<path d="M285.211 56.6941C293.357 55.4683 302.039 57.9021 309.715 61.0483C311.659 61.6908 310.25 64.7079 308.641 63.8279C301.099 61.5967 293.255 61.0939 285.511 60.015C283.232 59.61 283.401 56.9661 285.211 56.6941Z" fill="#032539"/>
<path d="M251.766 50.9048C256.456 47.5839 264.628 47.8481 269.986 49.0963C272.263 49.5006 271.659 52.9537 269.382 52.5493C266.535 52.0439 263.588 52.1139 260.875 52.5223C258.162 52.9306 255.348 53.9145 252.401 53.9845C250.928 54.0196 250.761 51.6164 251.766 50.9048Z" fill="#032539"/>
<path d="M203.794 61.9112C206.472 60.0169 209.851 59.1347 212.762 57.5777C216.577 55.8845 220.157 53.854 224.105 53.0723C226.246 52.563 227.213 55.398 225.306 56.2446C221.826 57.701 218.245 59.7316 214.999 61.5253C212.088 63.0823 208.741 65.4501 205.229 65.4209C203.088 65.9302 202.121 63.0948 203.794 61.9112Z" fill="#032539"/>
<path d="M164.867 85.8151C168.516 81.7283 174.571 78.953 179.489 75.9772C181.162 74.7941 182.798 77.1524 181.125 78.3355C176.674 81.9852 172.355 86.5453 166.969 88.8473C165.063 89.6931 163.428 87.3348 164.867 85.8151Z" fill="#032539"/>
<path d="M134.934 109.439C136.809 107.109 139.385 105.79 141.727 104.133C144.069 102.478 146.746 100.585 149.322 99.2654C150.995 98.0825 152.864 100.777 151.191 101.96C148.849 103.616 146.171 105.509 144.063 107.501C141.721 109.157 139.612 111.15 136.802 112.133C135.464 113.079 134.062 111.059 134.934 109.439Z" fill="#032539"/>
<path d="M103.814 141.272C105.125 133.779 106.67 126.624 108.785 119.571C110.262 114.485 111.775 105.838 116.371 103.089C118.048 101.901 120.798 102.984 120.964 105.391C121.298 110.205 118.01 115.564 116.398 119.735C114.585 125.059 113.242 131.061 111.898 137.062C120.484 135.022 129.775 133.998 138.495 132.873C141.212 132.464 142.451 137.142 139.633 138.128C129.369 141.356 118.235 141.16 108.339 145.643C106.092 146.729 103.645 143.917 103.814 141.272Z" fill="#032539"/>
</g>
<g clip-path="url(#clip1)">
<g clip-path="url(#clip2)">
<path d="M538.435 124.991C531.691 127.028 527.877 131.966 522.304 135.744C520.838 136.616 519.08 134.875 519.96 133.423C524.068 127.614 530.814 123.835 537.85 122.669C539.316 122.377 539.902 124.119 538.435 124.991Z" fill="#032539"/>
<path d="M489.136 176.23C488.851 166.075 495.013 157.655 502.051 151.266C503.225 150.104 505.274 152.133 504.101 153.295C498.234 159.684 493.832 167.521 492.653 176.226C492.651 178.548 489.134 178.552 489.136 176.23Z" fill="#032539"/>
<path d="M484.879 213.955C482.258 206.145 483.147 197.172 484.912 189.067C485.207 187.041 488.423 187.905 487.836 189.642C486.948 197.457 487.815 205.269 488.098 213.082C488.095 215.397 485.462 215.69 484.879 213.955Z" fill="#032539"/>
<path d="M484.986 247.896C480.901 243.854 479.742 235.761 480.041 230.268C480.043 227.955 483.549 227.95 483.546 230.263C483.543 233.154 484.123 236.044 484.997 238.645C485.87 241.246 487.327 243.846 487.908 246.736C488.199 248.181 485.861 248.763 484.986 247.896Z" fill="#032539"/>
<path d="M504.155 293.229C501.825 290.921 500.369 287.746 498.33 285.149C496 281.687 493.379 278.513 491.923 274.761C491.05 272.741 493.674 271.296 494.839 273.027C496.878 276.202 499.499 279.375 501.829 282.261C503.868 284.857 506.781 287.742 507.362 291.206C508.236 293.226 505.611 294.671 504.155 293.229Z" fill="#032539"/>
<path d="M534.455 327.413C529.797 324.529 526.013 319.048 522.228 314.721C520.772 313.279 522.811 311.259 524.266 312.701C528.633 316.451 533.874 319.912 537.076 324.816C538.24 326.547 536.202 328.567 534.455 327.413Z" fill="#032539"/>
<path d="M562.918 352.79C560.298 351.348 558.552 349.04 556.514 347.02C554.477 345.002 552.147 342.694 550.401 340.386C548.945 338.944 551.274 336.636 552.73 338.078C554.767 340.097 557.097 342.405 559.425 344.135C561.462 346.155 563.791 347.885 565.247 350.482C566.411 351.636 564.665 353.367 562.918 352.79Z" fill="#032539"/>
<path d="M599.672 377.909C592.065 377.919 584.75 377.64 577.437 376.782C572.172 376.21 563.394 376.222 559.888 372.173C558.427 370.728 559.016 367.832 561.357 367.25C566.04 366.085 571.889 368.393 576.277 369.256C581.834 370.117 587.978 370.398 594.122 370.679C590.622 362.577 588 353.606 585.378 345.213C584.504 342.609 588.895 340.576 590.355 343.18C595.317 352.728 597.058 363.727 603.19 372.693C604.65 374.717 602.306 377.616 599.672 377.909Z" fill="#032539"/>
</g>
</g>
<g clip-path="url(#clip3)">
<path d="M343.802 205.65C342.564 205.898 341.327 204.66 341.327 203.175C341.574 200.948 342.812 200.205 344.297 198.72C345.782 197.235 347.267 196.245 348.752 194.76C350.98 193.027 353.702 195.75 351.722 197.73C350.484 198.968 349.495 200.453 348.257 201.691C347.267 203.67 346.525 205.403 343.802 205.65Z" fill="#032539"/>
<path d="M330.898 223.841C327.185 225.574 324.958 228.791 321.493 230.771C319.512 231.761 317.285 229.534 318.275 227.554C320.255 223.594 324.71 221.118 329.166 220.128C331.393 219.386 332.878 222.851 330.898 223.841Z" fill="#032539"/>
<path d="M297.484 253.79C296.494 253.79 295.504 252.8 295.504 251.81C295.504 248.84 297.979 247.355 299.959 245.374C301.692 243.642 303.672 241.662 305.652 240.177C307.384 238.939 309.86 241.414 308.622 243.147C307.137 245.127 305.652 246.612 303.919 248.345C302.434 250.82 300.702 253.542 297.484 253.79Z" fill="#032539"/>
<path d="M386.97 171.464C383.262 178.82 376.258 184.499 369.255 188.945C367.607 190.16 365.959 187.266 367.607 186.462C373.786 181.597 378.73 175.486 384.086 169.79C385.734 168.164 387.793 169.83 386.97 171.464Z" fill="#032539"/>
<path d="M253.406 317.578C253.96 314.345 255.726 311.332 256.683 308.172C258.183 304.277 259.279 300.31 261.518 296.966C262.672 295.092 265.36 296.412 264.61 298.36C263.18 301.85 262.084 305.818 261.057 309.381C260.099 312.541 259.406 316.582 256.903 319.045C255.749 320.919 253.06 319.597 253.406 317.578Z" fill="#032539"/>
<path d="M245.573 359.177C245.263 353.706 247.582 347.463 248.956 341.881C249.303 339.861 252.126 340.372 251.78 342.392C251.213 348.12 251.384 354.398 249.204 359.834C248.454 361.78 245.63 361.269 245.573 359.177Z" fill="#032539"/>
<path d="M272.033 280.56C273.516 270.51 281.047 263.288 289.087 258.218C290.445 257.278 292.111 259.632 290.754 260.572C283.867 265.845 278.17 272.799 275.497 281.167C275.092 283.453 271.628 282.846 272.033 280.56Z" fill="#032539"/>
<path d="M260.293 402.448C261.519 394.302 259.085 385.62 255.939 377.944C255.297 376 252.28 377.409 253.16 379.018C255.391 386.56 255.894 394.404 256.972 402.148C257.377 404.427 260.021 404.258 260.293 402.448Z" fill="#032539"/>
<path d="M261.08 448.655C264.401 443.965 264.137 435.793 262.889 430.435C262.484 428.158 259.031 428.762 259.436 431.039C259.941 433.886 259.871 436.833 259.463 439.546C259.054 442.259 258.07 445.073 258 448.02C257.965 449.493 260.368 449.66 261.08 448.655Z" fill="#032539"/>
<path d="M244.664 489.812C246.994 487.504 248.45 484.33 250.488 481.733C252.818 478.27 255.44 475.097 256.895 471.345C257.768 469.325 255.144 467.88 253.98 469.611C251.941 472.785 249.319 475.959 246.989 478.844C244.95 481.441 242.037 484.326 241.456 487.79C240.583 489.81 243.207 491.254 244.664 489.812Z" fill="#032539"/>
<g clip-path="url(#clip4)">
<path d="M226.058 494.391C219.062 495.226 214.448 499.427 208.304 502.18C206.709 502.783 205.28 500.764 206.399 499.487C211.454 494.479 218.753 491.929 225.885 492.002C227.379 491.97 227.654 493.787 226.058 494.391Z" fill="#032539"/>
<path d="M163.033 529.56C164.516 519.51 172.047 512.288 180.087 507.218C181.445 506.278 183.111 508.632 181.754 509.572C174.867 514.845 169.17 521.799 166.497 530.167C166.092 532.453 162.628 531.846 163.033 529.56Z" fill="#032539"/>
<path d="M146.323 569.448C145.098 561.302 147.531 552.62 150.678 544.944C151.32 543 154.337 544.409 153.457 546.018C151.226 553.56 150.723 561.404 149.644 569.148C149.239 571.427 146.595 571.258 146.323 569.448Z" fill="#032539"/>
<path d="M149.905 611.234C146.584 606.544 146.848 598.372 148.096 593.014C148.501 590.737 151.954 591.341 151.549 593.618C151.044 596.465 151.114 599.412 151.522 602.125C151.931 604.838 152.915 607.652 152.985 610.599C153.02 612.072 150.616 612.239 149.905 611.234Z" fill="#032539"/>
</g>
<path d="M155.523 630.115C154.688 637.111 150.487 641.725 147.734 647.869C147.131 649.464 149.15 650.893 150.427 649.774C155.435 644.719 157.985 637.42 157.912 630.288C157.944 628.794 156.127 628.519 155.523 630.115Z" fill="#032539"/>
<path d="M113.623 687.564C123.673 686.08 130.895 678.55 135.965 670.509C136.905 669.152 134.551 667.486 133.611 668.843C128.338 675.73 121.384 681.426 113.016 684.099C110.73 684.504 111.337 687.968 113.623 687.564Z" fill="#032539"/>
<path d="M77.211 698.306C85.357 699.532 94.039 697.098 101.715 693.952C103.659 693.309 102.25 690.292 100.641 691.172C93.099 693.403 85.255 693.906 77.511 694.985C75.232 695.39 75.401 698.034 77.211 698.306Z" fill="#032539"/>
<path d="M50.4258 717.87C51.7365 710.377 53.2818 703.222 55.3966 696.169C56.8741 691.083 58.3869 682.436 62.9825 679.687C64.6598 678.499 67.4096 679.582 67.5764 681.989C67.9101 686.803 64.6214 692.162 63.0101 696.333C61.1972 701.657 59.8536 707.659 58.5099 713.661C67.0963 711.62 76.3866 710.596 85.1068 709.471C87.8235 709.063 89.0627 713.74 86.2447 714.726C75.981 717.954 64.8465 717.759 54.9513 722.241C52.7044 723.327 50.2566 720.515 50.4258 717.87Z" fill="#032539"/>
<path d="M394.768 161.037C400.327 159.579 405.378 153.149 407.865 148.242C409.019 146.238 405.986 144.481 404.832 146.485C403.389 148.991 401.441 151.203 399.385 153.019C397.328 154.835 394.765 156.358 392.817 158.571C391.844 159.677 393.577 161.349 394.768 161.037Z" fill="#032539"/>
</g>
<defs>
<clipPath id="clip0">
<rect width="246" height="249" fill="white" transform="matrix(-0.939693 0.34202 0.34202 0.939693 308.164 4)"/>
</clipPath>
<clipPath id="clip1">
<rect width="313" height="275" fill="white" transform="translate(472 139)"/>
</clipPath>
<clipPath id="clip2">
<rect width="246" height="249" fill="white" transform="matrix(0.5 0.866025 0.866025 -0.5 429 200.5)"/>
</clipPath>
<clipPath id="clip3">
<rect width="480" height="601" fill="white" transform="translate(0 139)"/>
</clipPath>
<clipPath id="clip4">
<rect width="239" height="227" fill="white" transform="translate(103 731) rotate(-90)"/>
</clipPath>
</defs>
</svg>
