<svg width="317" height="319" viewBox="0 0 317 319" fill="none" xmlns="http://www.w3.org/2000/svg">
<g clip-path="url(#clip0)">
<path d="M286.523 120.885C285.688 113.889 281.487 109.275 278.734 103.131C278.131 101.536 280.15 100.107 281.427 101.226C286.435 106.281 288.985 113.58 288.912 120.712C288.944 122.206 287.127 122.481 286.523 120.885Z" fill="#032539"/>
<path d="M244.623 63.4365C254.673 64.9198 261.895 72.4502 266.965 80.4911C267.905 81.8483 265.551 83.5145 264.611 82.1573C259.338 75.2705 252.384 69.5738 244.016 66.9009C241.73 66.4957 242.337 63.0319 244.623 63.4365Z" fill="#032539"/>
<path d="M208.211 52.6941C216.357 51.4683 225.039 53.9021 232.715 57.0483C234.659 57.6908 233.25 60.7079 231.641 59.8279C224.099 57.5967 216.255 57.0939 208.511 56.015C206.232 55.61 206.401 52.9661 208.211 52.6941Z" fill="#032539"/>
<path d="M174.766 46.9048C179.456 43.5839 187.628 43.8481 192.986 45.0963C195.263 45.5006 194.659 48.9537 192.382 48.5493C189.535 48.0439 186.588 48.1139 183.875 48.5223C181.162 48.9306 178.348 49.9145 175.401 49.9845C173.928 50.0196 173.761 47.6164 174.766 46.9048Z" fill="#032539"/>
<path d="M126.794 57.9112C129.472 56.0169 132.851 55.1347 135.762 53.5777C139.577 51.8845 143.157 49.854 147.105 49.0723C149.246 48.563 150.213 51.398 148.306 52.2446C144.826 53.701 141.245 55.7316 137.999 57.5253C135.088 59.0823 131.741 61.4501 128.229 61.4209C126.088 61.9302 125.121 59.0948 126.794 57.9112Z" fill="#032539"/>
<path d="M87.8669 81.8151C91.5161 77.7283 97.571 74.953 102.489 71.9772C104.162 70.7941 105.798 73.1524 104.125 74.3355C99.6736 77.9852 95.3551 82.5453 89.9695 84.8473C88.0633 85.6931 86.4279 83.3348 87.8669 81.8151Z" fill="#032539"/>
<path d="M57.9335 105.439C59.8087 103.109 62.3845 101.79 64.7273 100.133C67.0691 98.4777 69.7465 96.5847 72.3223 95.2654C73.9954 94.0825 75.864 96.7768 74.1909 97.9597C71.8486 99.6158 69.1712 101.509 67.063 103.501C64.7208 105.157 62.6121 107.15 59.8021 108.133C58.4637 109.079 57.0622 107.059 57.9335 105.439Z" fill="#032539"/>
<path d="M26.8139 137.272C28.1245 129.779 29.6698 122.624 31.7847 115.571C33.2621 110.485 34.775 101.838 39.3706 99.0888C41.0479 97.901 43.7976 98.9839 43.9645 101.391C44.2981 106.205 41.0095 111.564 39.3982 115.735C37.5853 121.059 36.2416 127.061 34.898 133.062C43.4844 131.022 52.7747 129.998 61.4949 128.873C64.2116 128.464 65.4508 133.142 62.6327 134.128C52.369 137.356 41.2346 137.16 31.3394 141.643C29.0925 142.729 26.6447 139.917 26.8139 137.272Z" fill="#032539"/>
</g>
<defs>
<clipPath id="clip0">
<rect width="246" height="249" fill="white" transform="matrix(-0.939693 0.34202 0.34202 0.939693 231.164 0)"/>
</clipPath>
</defs>
</svg>
