<svg width="480" height="601" viewBox="0 0 480 601" fill="none" xmlns="http://www.w3.org/2000/svg">
<g clip-path="url(#clip0)">
<path d="M343.802 66.6504C342.564 66.8979 341.327 65.6603 341.327 64.1753C341.574 61.9477 342.812 61.2052 344.297 59.7201C345.782 58.2351 347.267 57.245 348.752 55.76C350.98 54.0274 353.702 56.75 351.722 58.7301C350.484 59.968 349.495 61.4527 348.257 62.6906C347.267 64.6703 346.525 66.4033 343.802 66.6504Z" fill="#032539"/>
<path d="M330.898 84.841C327.185 86.5736 324.958 89.7912 321.493 91.7713C319.512 92.7613 317.285 90.5338 318.275 88.5537C320.255 84.5935 324.71 82.1184 329.166 81.128C331.393 80.3859 332.878 83.851 330.898 84.841Z" fill="#032539"/>
<path d="M297.484 114.79C296.494 114.79 295.504 113.8 295.504 112.81C295.504 109.84 297.979 108.355 299.959 106.374C301.692 104.642 303.672 102.662 305.652 101.177C307.384 99.9392 309.86 102.414 308.622 104.147C307.137 106.127 305.652 107.612 303.919 109.345C302.434 111.82 300.702 114.542 297.484 114.79Z" fill="#032539"/>
<path d="M386.97 32.4637C383.262 39.8204 376.258 45.4988 369.255 49.9446C367.607 51.1599 365.959 48.2663 367.607 47.462C373.786 42.5966 378.73 36.4856 384.086 30.7898C385.734 29.1636 387.793 30.8296 386.97 32.4637Z" fill="#032539"/>
<path d="M253.406 178.578C253.96 175.345 255.726 172.332 256.683 169.172C258.183 165.277 259.279 161.31 261.518 157.966C262.672 156.092 265.36 157.412 264.61 159.36C263.18 162.85 262.084 166.818 261.057 170.381C260.099 173.541 259.406 177.582 256.903 180.045C255.749 181.919 253.06 180.597 253.406 178.578Z" fill="#032539"/>
<path d="M245.573 220.177C245.263 214.706 247.582 208.463 248.956 202.881C249.303 200.861 252.126 201.372 251.78 203.392C251.213 209.12 251.384 215.398 249.204 220.834C248.454 222.78 245.63 222.269 245.573 220.177Z" fill="#032539"/>
<path d="M272.033 141.56C273.516 131.51 281.047 124.288 289.087 119.218C290.445 118.278 292.111 120.632 290.754 121.572C283.867 126.845 278.17 133.799 275.497 142.167C275.092 144.453 271.628 143.846 272.033 141.56Z" fill="#032539"/>
<path d="M260.293 263.448C261.519 255.302 259.085 246.62 255.939 238.944C255.297 237 252.28 238.409 253.16 240.018C255.391 247.56 255.894 255.404 256.972 263.148C257.377 265.427 260.021 265.258 260.293 263.448Z" fill="#032539"/>
<path d="M261.08 309.655C264.401 304.965 264.137 296.793 262.889 291.435C262.484 289.158 259.031 289.762 259.436 292.039C259.941 294.886 259.871 297.833 259.463 300.546C259.054 303.259 258.07 306.073 258 309.02C257.965 310.493 260.368 310.66 261.08 309.655Z" fill="#032539"/>
<path d="M244.664 350.812C246.994 348.504 248.45 345.33 250.488 342.733C252.818 339.27 255.44 336.097 256.895 332.345C257.768 330.325 255.144 328.88 253.98 330.611C251.941 333.785 249.319 336.959 246.989 339.844C244.95 342.441 242.037 345.326 241.456 348.79C240.583 350.81 243.207 352.254 244.664 350.812Z" fill="#032539"/>
<g clip-path="url(#clip1)">
<path d="M226.058 355.391C219.062 356.226 214.448 360.427 208.304 363.18C206.709 363.783 205.28 361.764 206.399 360.487C211.454 355.479 218.753 352.929 225.885 353.002C227.379 352.97 227.654 354.787 226.058 355.391Z" fill="#032539"/>
<path d="M163.033 390.56C164.516 380.51 172.047 373.288 180.087 368.218C181.445 367.278 183.111 369.632 181.754 370.572C174.867 375.845 169.17 382.799 166.497 391.167C166.092 393.453 162.628 392.846 163.033 390.56Z" fill="#032539"/>
<path d="M146.323 430.448C145.098 422.302 147.531 413.62 150.678 405.944C151.32 404 154.337 405.409 153.457 407.018C151.226 414.56 150.723 422.404 149.644 430.148C149.239 432.427 146.595 432.258 146.323 430.448Z" fill="#032539"/>
<path d="M149.905 472.234C146.584 467.544 146.848 459.372 148.096 454.014C148.501 451.737 151.954 452.341 151.549 454.618C151.044 457.465 151.114 460.412 151.522 463.125C151.931 465.838 152.915 468.652 152.985 471.599C153.02 473.072 150.616 473.239 149.905 472.234Z" fill="#032539"/>
</g>
<path d="M155.523 491.115C154.688 498.111 150.487 502.725 147.734 508.869C147.131 510.464 149.15 511.893 150.427 510.774C155.435 505.719 157.985 498.42 157.912 491.288C157.944 489.794 156.127 489.519 155.523 491.115Z" fill="#032539"/>
<path d="M113.623 548.564C123.673 547.08 130.895 539.55 135.965 531.509C136.905 530.152 134.551 528.486 133.611 529.843C128.338 536.73 121.384 542.426 113.016 545.099C110.73 545.504 111.337 548.968 113.623 548.564Z" fill="#032539"/>
<path d="M77.211 559.306C85.357 560.532 94.039 558.098 101.715 554.952C103.659 554.309 102.25 551.292 100.641 552.172C93.099 554.403 85.255 554.906 77.511 555.985C75.232 556.39 75.401 559.034 77.211 559.306Z" fill="#032539"/>
<path d="M50.4258 578.87C51.7365 571.377 53.2818 564.222 55.3966 557.169C56.8741 552.083 58.3869 543.436 62.9825 540.687C64.6598 539.499 67.4096 540.582 67.5764 542.989C67.9101 547.803 64.6214 553.162 63.0101 557.333C61.1972 562.657 59.8536 568.659 58.5099 574.661C67.0963 572.62 76.3866 571.596 85.1068 570.471C87.8235 570.063 89.0627 574.74 86.2447 575.726C75.981 578.954 64.8465 578.759 54.9513 583.241C52.7044 584.327 50.2566 581.515 50.4258 578.87Z" fill="#032539"/>
<path d="M394.768 22.0368C400.327 20.5787 405.378 14.1487 407.865 9.24195C409.019 7.23779 405.986 5.48086 404.832 7.48508C403.389 9.99088 401.441 12.2034 399.385 14.0192C397.328 15.835 394.765 17.3582 392.817 19.5708C391.844 20.6766 393.577 22.3493 394.768 22.0368Z" fill="#032539"/>
</g>
<defs>
<clipPath id="clip0">
<rect width="480" height="601" fill="white"/>
</clipPath>
<clipPath id="clip1">
<rect width="239" height="227" fill="white" transform="translate(103 592) rotate(-90)"/>
</clipPath>
</defs>
</svg>
