<svg width="313" height="275" viewBox="0 0 313 275" fill="none" xmlns="http://www.w3.org/2000/svg">
<g clip-path="url(#clip0)">
<g clip-path="url(#clip1)">
<path d="M66.4353 -14.0091C59.6911 -11.9721 55.8767 -7.03391 50.3041 -3.25577C48.8381 -2.38424 47.0802 -4.12493 47.9602 -5.57669C52.0683 -11.386 58.8136 -15.165 65.8504 -16.3313C67.3165 -16.6226 67.9022 -14.8807 66.4353 -14.0091Z" fill="#032539"/>
<path d="M17.1356 37.23C16.8511 27.0753 23.013 18.6551 30.0514 12.2659C31.2247 11.1043 33.2743 13.1334 32.1011 14.295C26.2345 20.6836 21.8319 28.5214 20.6528 37.2263C20.6508 39.5484 17.1341 39.5516 17.1356 37.23Z" fill="#032539"/>
<path d="M12.8794 74.9547C10.2576 67.1448 11.1468 58.1724 12.9123 50.067C13.2075 48.0408 16.4234 48.9045 15.8362 50.6417C14.9484 58.4565 15.8155 66.2689 16.0976 74.0821C16.0945 76.3972 13.4615 76.6898 12.8794 74.9547Z" fill="#032539"/>
<path d="M12.9855 108.896C8.90059 104.854 7.74185 96.7609 8.04062 91.2676C8.04342 88.9547 11.549 88.9503 11.5462 91.2631C11.5427 94.1541 12.1235 97.0444 12.9967 99.6452C13.8699 102.246 15.3274 104.846 15.9082 107.736C16.1986 109.181 13.8609 109.763 12.9855 108.896Z" fill="#032539"/>
<path d="M32.1551 154.229C29.8246 151.921 28.369 148.746 26.3301 146.149C24.0003 142.687 21.3788 139.513 19.9235 135.761C19.0502 133.741 21.6741 132.296 22.8391 134.027C24.8776 137.202 27.4991 140.375 29.8292 143.261C31.8681 145.857 34.7812 148.742 35.3623 152.206C36.2356 154.226 33.6111 155.671 32.1551 154.229Z" fill="#032539"/>
<path d="M62.4555 188.413C57.797 185.529 54.0125 180.048 50.2278 175.721C48.7722 174.279 50.8107 172.259 52.2664 173.701C56.6335 177.451 61.8742 180.912 65.0764 185.816C66.2404 187.547 64.2019 189.567 62.4555 188.413Z" fill="#032539"/>
<path d="M90.9182 213.79C88.2983 212.348 86.5518 210.04 84.5137 208.02C82.4765 206.002 80.1473 203.694 78.4008 201.386C76.9453 199.944 79.2742 197.636 80.7297 199.078C82.7673 201.097 85.0965 203.405 87.4248 205.135C89.4624 207.155 91.7912 208.885 93.2471 211.482C94.4114 212.636 92.6648 214.367 90.9182 213.79Z" fill="#032539"/>
<path d="M127.672 238.909C120.065 238.919 112.75 238.64 105.437 237.782C100.172 237.21 91.3938 237.222 87.8881 233.173C86.4271 231.728 87.016 228.832 89.3575 228.25C94.0403 227.085 99.8889 229.393 104.277 230.256C109.834 231.117 115.978 231.398 122.122 231.679C118.622 223.577 116 214.606 113.378 206.213C112.504 203.609 116.895 201.576 118.355 204.18C123.317 213.728 125.058 224.727 131.19 233.693C132.65 235.717 130.306 238.616 127.672 238.909Z" fill="#032539"/>
</g>
</g>
<defs>
<clipPath id="clip0">
<rect width="313" height="275" fill="white"/>
</clipPath>
<clipPath id="clip1">
<rect width="246" height="249" fill="white" transform="matrix(0.5 0.866025 0.866025 -0.5 -43 61.5)"/>
</clipPath>
</defs>
</svg>
