<svg width="43" height="38" viewBox="0 0 43 38" fill="none" xmlns="http://www.w3.org/2000/svg">
<path d="M37.8846 3.95798H35.2896V1.90097C35.2896 1.30897 34.8057 0.823975 34.2135 0.823975C33.6213 0.823975 33.1365 1.30897 33.1365 1.90097V3.95798H22.5851V1.90097C22.5851 1.30897 22.1006 0.823975 21.5085 0.823975C20.9163 0.823975 20.4318 1.30897 20.4318 1.90097V3.95798H9.7728V1.90097C9.7728 1.30897 9.2883 0.823975 8.6961 0.823975C8.104 0.823975 7.6195 1.30897 7.6195 1.90097V3.95798H5.1323C2.7637 3.95798 0.836399 5.95198 0.836399 8.32098V33.365C0.836399 35.746 2.7529 37.674 5.1323 37.674H37.8741C40.2534 37.674 42.1698 35.746 42.1698 33.376V8.32098C42.1803 5.95198 40.2534 3.95798 37.8846 3.95798ZM40.0272 33.365C40.0272 34.55 39.0795 35.509 37.8951 35.519H37.8846H5.1323C3.948 35.519 2.9897 34.561 2.9897 33.376V33.365V8.32098C2.9897 7.12498 3.948 6.11298 5.1323 6.11298H7.6195V7.67496C7.6195 8.26696 8.104 8.75198 8.6961 8.75198C9.2883 8.75198 9.7728 8.26696 9.7728 7.67496V6.11298H20.4318V7.67496C20.4318 8.26696 20.9163 8.75198 21.5085 8.75198C22.1006 8.75198 22.5851 8.26696 22.5851 7.67496V6.11298H33.1365V7.67496C33.1365 8.26696 33.6213 8.75198 34.2135 8.75198C34.8057 8.75198 35.2896 8.26696 35.2896 7.67496V6.11298H37.8846C39.0795 6.11298 40.0272 7.13598 40.0272 8.32098V33.365Z" fill="#032539"/>
</svg>
