<svg width="295" height="195" viewBox="0 0 295 195" fill="none" xmlns="http://www.w3.org/2000/svg">
<path d="M47.6977 119.229C45.476 118.266 43.8349 116.985 41.9203 115.489C40.0224 113.62 38.9786 111.645 36.5002 110.096C34.8423 109.187 32.8271 109.932 32.7768 111.052C32.5924 115.16 40.3012 120.022 45.9057 121.308C48.4177 122.11 49.9194 120.191 47.6977 119.229Z" fill="#032539"/>
<path d="M33.9771 87.4046C34.3977 84.5453 35.9825 81.7969 38.7129 79.5451C40.8451 77.6221 44.3884 76.8007 46.8019 75.0985C47.718 74.2195 46.3064 73.1182 45.1253 73.392C35.763 73.6578 31.3095 81.7375 31.3672 86.962C31.0158 88.2815 33.9253 88.5594 33.9771 87.4046Z" fill="#032539"/>
<path d="M79.7388 49.808C81.533 49.1994 80.7493 46.9787 78.6707 47.3651C71.262 48.412 65.775 52.5687 62.3496 56.7273C61.7283 57.4481 63.4522 58.3936 64.0735 57.6728C68.3702 53.7923 74.0545 51.8002 79.7388 49.808Z" fill="#032539"/>
<path d="M131.697 38.5887C124.442 38.0887 116.256 38.8475 110.883 41.7999C109.39 42.62 111.641 44.3749 113.133 43.5548C118.489 40.9857 125.745 41.4858 131.893 40.725C133.93 40.7272 134.016 38.8103 131.697 38.5887Z" fill="#032539"/>
<path d="M186.797 44.8504C184.01 43.4531 180.622 42.7524 177.819 41.7306C174.448 40.6545 171.369 39.4179 167.723 38.127C166.037 37.589 164.835 38.9823 166.52 39.5203C171.818 42.1001 179.319 46.3984 185.87 46.4585C187.572 46.6211 188.19 45.5487 186.797 44.8504Z" fill="#032539"/>
<path d="M261.95 83.7107C261.677 83.4971 261.677 83.4971 261.404 83.2835C261.404 83.2835 261.404 83.2835 261.13 83.07C260.857 82.8564 260.857 82.8564 260.583 82.6425C260.31 82.4293 260.036 82.2154 259.763 82.0018C259.216 81.5747 258.67 81.1479 258.123 80.7204C257.303 80.0797 256.209 79.2255 255.099 78.7445C253.732 77.6767 251.411 78.954 252.778 80.0218C253.598 80.6625 254.691 81.5168 255.221 82.3172L256.862 83.5985C257.135 83.8121 257.409 84.026 257.682 84.2392C257.955 84.4528 257.955 84.4528 258.229 84.6667C258.502 84.8803 258.776 85.0938 259.049 85.3074C259.869 85.9481 261.013 85.6826 261.593 85.3633C262.174 85.0443 262.481 84.5108 261.95 83.7107Z" fill="#032539"/>
<path d="M257.951 106.643C258.3 105.334 255.132 104.84 254.503 105.931C253.542 107.948 253.159 110.021 252.199 112.038C251.518 114.274 249.98 116.236 249.019 118.253C248.39 119.344 250.93 120.928 252.136 119.893C257.208 116.734 256.887 110.951 257.951 106.643Z" fill="#032539"/>
<path d="M231.373 139.527C232.624 137.712 234.457 135.953 236.572 134.415C238.089 133.206 235.846 131.058 233.748 132.211C231.35 133.529 229.234 135.068 227.401 136.827C225.868 138.421 223.735 140.345 223.649 142.271C223.897 143.262 225.026 144.143 226.508 143.705C229.171 142.992 229.84 141.122 231.373 139.527Z" fill="#032539"/>
<path d="M196.933 146.534C193.71 147.187 190.503 147.457 187.297 147.727C184.09 147.997 180.917 147.503 178.255 148.592C177.064 149.247 177.872 150.668 179.011 151.161C182.166 152.038 186.265 151.277 189.192 150.788C192.696 150.354 195.64 149.483 198.864 148.831C200.913 148.45 198.983 146.154 196.933 146.534Z" fill="#032539"/>
<path d="M151.407 149.032C148.266 148.542 144.832 148.214 141.414 147.508C137.996 146.802 134.318 145.501 131.127 146.146C129.965 146.416 129.62 147.713 130.453 148.363C132.675 150.095 136.977 150.316 140.117 150.805C143.829 151.35 147.559 151.515 150.994 151.843C153.856 152.116 154.252 149.683 151.407 149.032Z" fill="#032539"/>
<path d="M233.11 61.733C230.751 60.0308 227.62 58.9485 225.145 57.6157C222.129 56.1641 219.441 54.5872 216.213 52.8915C214.705 52.1657 213.161 53.4055 214.669 54.1314C219.175 57.2916 225.384 62.4046 231.78 63.2169C233.403 63.5734 234.291 62.5839 233.11 61.733Z" fill="#032539"/>
<path d="M99.8588 146.715C97.6848 144.63 94.9305 142.866 92.1762 141.101C89.4211 139.336 85.8445 136.931 81.6211 136.339C79.3636 136.123 78.4416 137.724 79.5195 138.953C81.4193 140.823 85.3363 141.948 87.834 143.125C91.1699 144.57 94.4895 146.389 97.5343 147.993C99.1943 148.903 100.39 147.516 99.8588 146.715Z" fill="#032539"/>
</svg>
