<svg width="90" height="90" viewBox="0 0 125 125" fill="none" xmlns="http://www.w3.org/2000/svg">
<path d="M25.1411 62.2416C25.1411 62.2416 12.017 72.5969 13.947 90.125C15.877 107.654 28.5125 116.917 45.5473 116.532C62.5821 116.146 81.3741 103.143 87.7357 89.0067C96.6004 69.3066 88.8939 43.2235 88.8939 43.2235C88.8939 43.2235 69.8815 37.7998 46.6118 49.7914C26.1303 60.3469 25.1411 62.2416 25.1411 62.2416Z" fill="#EDC900"/>
<path d="M15.38 60.8102C15.38 75.0651 26.9349 86.6211 41.1898 86.6211C55.4446 86.6211 67 75.0651 67 60.8102C67 46.556 55.4446 35 41.1898 35C26.9349 35 15.38 46.556 15.38 60.8102Z" fill="#FFD800"/>
<path d="M15.752 80.1984C15.752 80.1984 13.996 83.8674 11.921 85.6689C9.84501 87.4699 8.57302 90.5157 12.772 94.5045C15.344 96.9482 19.702 98.6219 22.276 97.7214C24.849 96.8209 28.5811 89.4006 31.9266 89.229C34.115 89.1169 33.9852 87.8137 32.827 86.3984C31.6688 84.9831 29.1606 84.6595 27.7453 81.4427C26.33 78.2264 23.107 76.9954 21.151 77.0809C19.193 77.167 17.252 76.3609 16.75 76.6307C15.441 77.3342 15.752 80.1984 15.752 80.1984Z" fill="#CC8200"/>
<path d="M36.3017 82.3227C36.3017 84.1705 37.7994 85.6688 39.6472 85.6688C41.4943 85.6688 42.9926 84.1705 42.9926 82.3227C42.9926 80.4756 41.4943 78.9773 39.6472 78.9773C37.7994 78.9773 36.3017 80.4756 36.3017 82.3227Z" fill="#2A353C"/>
<path d="M13.784 70.6149C13.784 68.7671 14.4 67.2695 15.16 67.2695C15.92 67.2695 16.536 68.7671 16.536 70.6149C16.536 72.4627 15.92 73.9603 15.16 73.9603C14.4 73.9603 13.784 72.4627 13.784 70.6149Z" fill="#2A353C"/>
<path d="M53.1914 96.2464L84.7103 75.6604C84.7103 75.6604 89.2336 90.6707 80.586 100.325C71.9391 109.98 64.9691 113.497 58.2979 114.312C56.4912 114.533 54.76 114.043 53.2206 113.091C47.042 109.266 47.1073 100.22 53.1914 96.2464Z" fill="#FFD800"/>
<path d="M32.525 48.6552C33.951 50.9577 32.2666 54.5836 28.7629 56.7538C25.2592 58.9245 21.263 58.8175 19.837 56.515C18.41 54.2126 20.094 50.5866 23.598 48.4165C27.1019 46.2458 31.0989 46.3528 32.525 48.6552Z" fill="#FAEC8B"/>
<path d="M58.5282 45.0466L57.9696 46.2001C57.9696 46.2001 49.1132 53.3916 41.5274 53.3916C33.9416 53.3916 25.0452 46.2001 25.0452 46.2001L24.527 45.0466C25.3786 42.5021 26.4242 39.0086 27.1577 35.3189L28.7786 34.4075H54.5145L55.8979 35.3186C56.6314 39.0084 57.6771 42.502 58.5286 45.0465L58.5282 45.0466Z" fill="#365E7D"/>
<path d="M51.0063 34.7989L50.412 34.4075H54.5145L55.8979 35.3187C56.6314 39.0084 57.6771 42.5021 58.5286 45.0466H58.5284L57.9699 46.2C57.9699 46.2 56.6067 47.3068 54.4924 48.6519C53.2532 44.5126 51.9895 39.7444 51.0063 34.7989Z" fill="#294B64"/>
<path d="M12.49 26.5686L40.0478 17.2552C41.0075 16.9309 42.0473 16.9309 43.0071 17.2552L70.5643 26.5686C71.2758 26.809 71.3385 27.7908 70.6636 28.1199L43.5527 41.3374C42.2745 41.9606 40.7804 41.9606 39.5022 41.3374L12.391 28.1199C11.716 27.7908 11.779 26.809 12.49 26.5686Z" fill="#477B9E"/>
<path d="M62.3231 28.1199C62.9982 27.7908 62.9353 26.809 62.2239 26.5686L37.3572 18.1645L40.0476 17.2552C41.0074 16.9309 42.0472 16.9309 43.0069 17.2552L70.5643 26.5686C71.2758 26.809 71.3385 27.7908 70.6636 28.1199L43.5527 41.3374C42.2744 41.9606 40.7804 41.9606 39.5022 41.3374L37.3573 40.2917L62.3231 28.1199Z" fill="#3F6D8E"/>
<path d="M17.032 51.0684H20.161L20.533 56.855C20.564 57.3344 20.194 57.7409 19.727 57.7409H17.466C16.999 57.7409 16.629 57.3344 16.66 56.855L17.032 51.0684Z" fill="#FFD064"/>
<path d="M18.497 56.855L18.125 51.0684H20.161L20.533 56.855C20.564 57.3344 20.194 57.7409 19.727 57.7409H17.691C18.158 57.7409 18.528 57.3344 18.497 56.855Z" fill="#F2AB08"/>
<path d="M17.8729 46.9094H19.3209C20.0419 46.9094 20.6329 47.4997 20.6329 48.2213V50.8255C20.6329 51.0624 20.4409 51.2544 20.2039 51.2544H16.9899C16.7529 51.2544 16.5609 51.0624 16.5609 50.8255V48.2213C16.5609 47.4997 17.1509 46.9094 17.8729 46.9094Z" fill="#FFE07D"/>
<path d="M18.3289 50.8255V48.2213C18.3289 47.6494 17.9579 47.1612 17.4449 46.9828C17.5789 46.9361 17.7229 46.9094 17.8729 46.9094H19.3209C20.0419 46.9094 20.6329 47.4997 20.6329 48.2213V50.8255C20.6329 51.0625 20.4409 51.2544 20.2039 51.2544H17.8999C18.1369 51.2546 18.3289 51.0625 18.3289 50.8255Z" fill="#FFD064"/>
<path d="M41.3431 22.9851C43.0612 22.881 44.4872 24.2437 44.4872 25.9393V25.9543C44.4834 26.7168 43.8444 27.3247 43.0818 27.3247H39.9729C39.2358 27.3247 38.5252 26.7544 38.5713 25.7943C38.6426 24.301 39.8509 23.0756 41.3431 22.9851Z" fill="#3F6D8E"/>
<path d="M41.8062 25.9543C41.8062 25.9493 41.8062 25.9443 41.8062 25.9393C41.8062 24.7895 41.1502 23.7934 40.1924 23.3034C40.5429 23.1239 40.9315 23.01 41.343 22.9851C43.0611 22.881 44.4871 24.2437 44.4871 25.9393V25.9543C44.4832 26.7168 43.8443 27.3247 43.0817 27.3247H40.4009C41.1636 27.3247 41.8024 26.7168 41.8062 25.9543Z" fill="#365E7D"/>
<path d="M24.527 45.0467C27.6329 47.5995 32.6832 50.4565 38.1391 52.2146C40.3017 52.9117 42.6985 52.9294 44.9162 52.2146C50.3597 50.4604 55.4081 47.6098 58.5281 45.0466C58.8267 45.9387 59.1014 46.7146 59.3302 47.3407C59.7233 48.4162 59.3847 49.6251 58.4844 50.3327C53.4964 54.253 48.2315 56.3949 44.9162 57.4633C43.8214 57.8161 42.6779 57.9926 41.5277 57.9926C40.3774 57.9926 39.234 57.8161 38.1391 57.4633C34.8238 56.3949 29.5589 54.2529 24.571 50.3327C23.671 49.6251 23.332 48.4162 23.725 47.3407C23.954 46.7147 24.229 45.9388 24.527 45.0467Z" fill="#FFE07D"/>
<path d="M54.291 47.9752C55.9202 47.0071 57.3595 46.0067 58.5283 45.0466C58.8267 45.9387 59.1015 46.7146 59.3304 47.3407C59.7234 48.4162 59.3848 49.6251 58.4845 50.3327C57.5437 51.0722 56.5931 51.7482 55.6474 52.3659C55.2065 51.0001 54.7495 49.529 54.291 47.9752Z" fill="#FFD064"/>
<path d="M12.177 25.7188L25.054 21.367C25.5214 21.2097 26.0286 21.4599 26.1867 21.9274C26.3447 22.395 26.0938 22.9022 25.6262 23.0602L12.872 27.3706L18.876 30.2974C19.125 30.1293 19.405 30.0003 19.708 29.921L37.7155 25.2148C38.2879 22.2701 41.9136 21.0342 44.1406 23.1299C44.9113 23.8552 45.3534 24.8781 45.3534 25.9363V25.9558C45.3471 27.2017 44.3158 28.2153 43.0544 28.2153H39.9454C39.1426 28.2153 38.3396 27.7964 37.9232 27.0078L21.13 31.3967C26.4363 33.9836 38.348 39.791 39.8664 40.5314C40.9382 41.0538 42.1325 41.0195 43.1337 40.5314L70.1279 27.3706L42.6936 18.0987C41.9241 17.8385 41.0761 17.8385 40.3065 18.0987L29.5955 21.7188C29.1279 21.8767 28.6209 21.6261 28.4628 21.1583C28.3048 20.6908 28.5557 20.1836 29.0232 20.0256L39.7343 16.4055C40.8731 16.0208 42.1271 16.0208 43.2659 16.4055L70.8231 25.7188C72.2872 26.214 72.4193 28.2418 71.0278 28.9201L56.8852 35.8152C57.6632 39.5141 58.8511 43.4964 60.1422 47.031C60.6707 48.4765 60.2154 50.0845 59.0094 51.0324C54.928 54.2403 50.1056 56.7183 45.163 58.3112C42.8403 59.0595 40.2504 59.0884 37.8377 58.3112C32.8935 56.7176 28.0707 54.2386 23.991 51.0324C22.781 50.0808 22.332 48.4721 22.859 47.031C24.122 43.5748 25.3264 39.5665 26.1154 35.8155L19.463 32.5722V46.0216C20.6 46.1087 21.499 47.0596 21.499 48.2185V50.8226C21.499 51.2095 21.331 51.5571 21.065 51.7992L21.397 56.8179C21.462 57.7984 20.683 58.6317 19.7 58.6317H17.439C16.456 58.6317 15.676 57.7987 15.741 56.8179L16.073 51.7992C15.807 51.5571 15.639 51.2096 15.639 50.8226V48.2184C15.639 47.0595 16.539 46.1086 17.676 46.0215V32.5528C17.676 32.2781 17.719 32.0121 17.796 31.7595L11.972 28.9202C10.583 28.2426 10.711 26.2147 12.177 25.7188ZM39.9454 26.4281H43.0544C43.3305 26.4281 43.5648 26.2077 43.5662 25.9513V25.9363C43.5662 25.3605 43.3352 24.8262 42.9157 24.4313C41.6288 23.2202 39.5199 24.092 39.4364 25.8339C39.4165 26.2511 39.685 26.4281 39.9454 26.4281ZM25.5432 44.7338C30.3713 48.5125 37.223 51.2156 39.5831 51.6655C40.0679 51.7579 40.3859 52.2259 40.2934 52.7106C40.201 53.1956 39.7316 53.5136 39.2482 53.421C36.7796 52.9502 30.016 50.3217 24.939 46.522C24.814 46.8781 24.669 47.2836 24.537 47.6445C24.275 48.3618 24.5 49.1584 25.0958 49.6272C29.9081 53.4093 34.9792 55.512 38.3859 56.6097C40.4207 57.2657 42.6307 57.2495 44.6148 56.6097C48.0214 55.5119 53.0925 53.4093 57.9049 49.6272C58.501 49.1586 58.7259 48.3621 58.4634 47.6444C58.4582 47.6301 58.4531 47.6155 58.4478 47.6012C58.3179 47.2455 58.174 46.8417 58.0621 46.5218C53.1046 50.2306 46.3595 52.9242 43.7532 53.4214C43.2678 53.5136 42.8004 53.1958 42.7079 52.7111C42.6155 52.2263 42.9335 51.7583 43.4182 51.6658C45.6462 51.2411 52.5214 48.5952 57.4575 44.7337C56.7317 42.5143 55.8908 39.6622 55.2298 36.6223L43.9169 42.1376C42.4107 42.872 40.6482 42.9007 39.0831 42.1376L27.771 36.6225C27.11 39.6623 26.269 42.5145 25.5432 44.7338ZM19.608 56.8443L19.297 52.1453H17.841L17.531 56.8443H19.608ZM17.427 48.2183V50.358H19.712V48.2183C19.712 47.9916 19.52 47.8 19.294 47.8H17.845C17.618 47.8001 17.427 47.9916 17.427 48.2183Z" fill="black"/>
</svg>
