<svg width="43" height="29" viewBox="0 0 43 29" fill="#032539" xmlns="http://www.w3.org/2000/svg">
<path d="M40.0497 0.533936H2.9561C1.7902 0.533936 0.836399 1.48793 0.836399 2.65393V25.9819C0.836399 27.1479 1.7902 28.1019 2.9561 28.1019H40.0505C41.2161 28.1019 42.1698 27.1479 42.1698 25.9819V2.65393C42.1698 1.48793 41.2161 0.533936 40.0497 0.533936ZM39.2546 2.12393L22.7224 14.5299C22.4252 14.7559 21.9689 14.8979 21.503 14.8959C21.0372 14.8979 20.581 14.7559 20.2837 14.5299L3.7515 2.12393H39.2546ZM30.4237 15.3489L39.432 26.4829C39.441 26.4929 39.4523 26.5019 39.4621 26.5119H3.5442C3.5538 26.5009 3.5649 26.4929 3.574 26.4829L12.5825 15.3489C12.8586 15.0079 12.8062 14.507 12.4643 14.2299C12.1231 13.9539 11.6228 14.0059 11.3467 14.3469L2.4262 25.3729V3.11795L19.3303 15.8019C19.9658 16.2759 20.7388 16.4839 21.5029 16.4859C22.266 16.4849 23.0397 16.2769 23.6755 15.8019L40.5796 3.11795V25.3719L31.6594 14.3469C31.3833 14.0059 30.8825 13.9539 30.5418 14.2299C30.2 14.5059 30.1475 15.0079 30.4237 15.3489Z" fill="black"/>
</svg>
