<svg width="35" height="43" viewBox="0 0 35 43" fill="none" xmlns="http://www.w3.org/2000/svg">
<path d="M29.7227 22.892H8.6773C8.3429 22.892 8.0719 23.164 8.0719 23.498C8.0719 23.832 8.343 24.104 8.6773 24.104H29.7227C30.0571 24.104 30.3281 23.832 30.3281 23.498C30.3281 23.164 30.057 22.892 29.7227 22.892Z" fill="#032539"/>
<path d="M29.7227 26.795H8.6773C8.3429 26.795 8.0719 27.067 8.0719 27.401C8.0719 27.736 8.343 28.007 8.6773 28.007H29.7227C30.0571 28.007 30.3281 27.736 30.3281 27.401C30.3281 27.067 30.057 26.795 29.7227 26.795Z" fill="#032539"/>
<path d="M29.7227 30.698H8.6773C8.3429 30.698 8.0719 30.97 8.0719 31.304C8.0719 31.639 8.343 31.909 8.6773 31.909H29.7227C30.0571 31.909 30.3281 31.639 30.3281 31.304C30.3281 30.97 30.057 30.698 29.7227 30.698Z" fill="#032539"/>
<path d="M29.7227 34.601H8.6773C8.3429 34.601 8.0719 34.873 8.0719 35.207C8.0719 35.542 8.343 35.813 8.6773 35.813H29.7227C30.0571 35.813 30.3281 35.542 30.3281 35.207C30.3281 34.873 30.057 34.601 29.7227 34.601Z" fill="#032539"/>
<path d="M29.7226 14.902H21.9893C21.655 14.902 21.3839 15.173 21.3839 15.508C21.3839 15.842 21.6551 16.113 21.9893 16.113H29.7226C30.057 16.113 30.3281 15.842 30.3281 15.508C30.3281 15.173 30.057 14.902 29.7226 14.902Z" fill="#032539"/>
<path d="M29.7226 11.7H21.9893C21.655 11.7 21.3839 11.9709 21.3839 12.3049C21.3839 12.6399 21.6551 12.9109 21.9893 12.9109H29.7226C30.057 12.9109 30.3281 12.6399 30.3281 12.3049C30.3281 11.9709 30.057 11.7 29.7226 11.7Z" fill="#032539"/>
<path d="M33.9158 34.3969C34.2503 34.3969 34.5216 34.1259 34.5216 33.7909V6.62595C34.5216 5.31395 33.4529 4.24493 32.14 4.24493H30.9887V3.09294C30.9887 1.77894 29.9208 0.710938 28.608 0.710938H3.3626C2.0499 0.710938 0.9818 1.77894 0.9818 3.09294V36.1479C0.9818 37.4609 2.0499 38.5299 3.3626 38.5299H4.5141V39.6819C4.5141 40.9949 5.5821 42.0629 6.895 42.0629H32.14C33.4529 42.0629 34.5208 40.9949 34.5208 39.6819V36.6229C34.5208 36.2879 34.2503 36.0179 33.9158 36.0179C33.5814 36.0179 33.3101 36.2879 33.3101 36.6229V39.6819C33.3101 40.3269 32.7856 40.8519 32.14 40.8519H6.895C6.2499 40.8519 5.725 40.3269 5.725 39.6819V6.62595C5.725 5.98095 6.2499 5.45694 6.895 5.45694H32.14C32.7856 5.45694 33.3101 5.98095 33.3101 6.62595V33.7909C33.3101 34.1259 33.5814 34.3969 33.9158 34.3969ZM4.5141 6.62595V37.3179H3.3626C2.7174 37.3179 2.1927 36.7929 2.1927 36.1479V3.09294C2.1927 2.44794 2.7175 1.92194 3.3626 1.92194H28.608C29.2532 1.92194 29.7781 2.44794 29.7781 3.09294V4.24493H6.895C5.5822 4.24493 4.5141 5.31395 4.5141 6.62595Z" fill="#032539"/>
<path d="M8.6288 12.677C8.2945 12.677 8.0234 12.947 8.0234 13.282V17.856C8.0234 18.807 8.7333 19.598 9.6756 19.7C9.904 19.726 16.4292 19.701 16.4389 19.701C16.4411 19.701 16.4434 19.701 16.4455 19.7C17.3884 19.598 18.0987 18.807 18.0987 17.856V9.95705C18.0987 8.93405 17.2672 8.10205 16.245 8.10205H9.8769C8.8549 8.10205 8.0233 8.93405 8.0233 9.95705V10.431C8.0233 10.766 8.2945 11.036 8.6287 11.036C8.963 11.036 9.2341 10.766 9.2341 10.431V9.95705C9.2341 9.60205 9.5225 9.31404 9.8769 9.31404H16.245C16.5994 9.31404 16.8877 9.60205 16.8877 9.95705V16.1581C16.4252 15.6681 15.8705 15.268 15.2506 14.986C15.5104 14.577 15.6545 14.096 15.6545 13.596C15.6545 12.165 14.491 11.002 13.0609 11.002C11.6309 11.002 10.4674 12.165 10.4674 13.596C10.4674 14.096 10.6115 14.577 10.8714 14.986C10.2514 15.268 9.6967 15.6681 9.2341 16.1581V13.282C9.2342 12.947 8.9632 12.677 8.6288 12.677ZM13.061 12.213C13.8235 12.213 14.4437 12.833 14.4437 13.596C14.4437 14.058 14.2143 14.488 13.8301 14.746C13.6026 14.899 13.3366 14.98 13.061 14.98C12.7854 14.98 12.5195 14.899 12.292 14.746C11.9077 14.488 11.6784 14.058 11.6784 13.596C11.6784 12.833 12.2986 12.213 13.061 12.213ZM11.8711 15.9C12.2375 16.09 12.6432 16.191 13.061 16.191C13.4788 16.191 13.8845 16.09 14.2509 15.9C15.397 16.25 16.3245 17.0881 16.7925 18.1951C16.6915 18.3591 16.5184 18.474 16.3138 18.496C16.2747 18.498 9.9141 18.505 9.8221 18.497L9.8088 18.496C9.8085 18.496 9.8082 18.496 9.8079 18.496C9.6034 18.474 9.4304 18.3591 9.3294 18.1951C9.7975 17.0881 10.725 16.25 11.8711 15.9Z" fill="#032539"/>
</svg>
