<svg width="42" height="43" viewBox="0 0 42 43" fill="none" xmlns="http://www.w3.org/2000/svg">
<path d="M41.1657 40.662L28.5894 28.079C31.2016 25.178 32.8071 21.352 32.8071 17.149C32.807 8.12303 25.4675 0.780029 16.446 0.780029C7.4245 0.780029 0.0848007 8.12303 0.0848007 17.149C0.0848007 26.174 7.4245 33.518 16.446 33.518C20.6473 33.518 24.4714 31.911 27.3718 29.297L39.9482 41.88C40.1165 42.048 40.3367 42.132 40.5569 42.132C40.7771 42.132 40.9981 42.048 41.1657 41.88C41.5023 41.544 41.5023 40.999 41.1657 40.662ZM16.446 31.794C8.3747 31.794 1.8071 25.225 1.8071 17.149C1.8071 9.07303 8.3747 2.50303 16.446 2.50303C24.5172 2.50303 31.0848 9.07303 31.0848 17.149C31.0848 25.225 24.5172 31.794 16.446 31.794Z" fill="#032539"/>
</svg>
