<svg width="42" height="37" viewBox="0 0 42 37" fill="none" xmlns="http://www.w3.org/2000/svg">
<path d="M37.0482 3.134H34.4532V1.077C34.4532 0.484996 33.9693 0 33.3771 0C32.7849 0 32.3001 0.484996 32.3001 1.077V3.134H21.7487V1.077C21.7487 0.484996 21.2642 0 20.6721 0C20.0799 0 19.5954 0.484996 19.5954 1.077V3.134H8.9364V1.077C8.9364 0.484996 8.4519 0 7.8597 0C7.2676 0 6.7831 0.484996 6.7831 1.077V3.134H4.2959C1.9273 3.134 0 5.12801 0 7.49701V32.541C0 34.922 1.9165 36.85 4.2959 36.85H37.0377C39.417 36.85 41.3334 34.922 41.3334 32.552V7.49701C41.3439 5.12801 39.417 3.134 37.0482 3.134ZM39.1908 32.541C39.1908 33.726 38.2431 34.685 37.0587 34.695H37.0482H4.2959C3.1116 34.695 2.1533 33.737 2.1533 32.552V32.541V7.49701C2.1533 6.30101 3.1116 5.289 4.2959 5.289H6.7831V6.85098C6.7831 7.44298 7.2676 7.92801 7.8597 7.92801C8.4519 7.92801 8.9364 7.44298 8.9364 6.85098V5.289H19.5954V6.85098C19.5954 7.44298 20.0799 7.92801 20.6721 7.92801C21.2642 7.92801 21.7487 7.44298 21.7487 6.85098V5.289H32.3001V6.85098C32.3001 7.44298 32.7849 7.92801 33.3771 7.92801C33.9693 7.92801 34.4532 7.44298 34.4532 6.85098V5.289H37.0482C38.2431 5.289 39.1908 6.31201 39.1908 7.49701V32.541Z" fill="#032539"/>
<path d="M17.8404 12.291H15.9562C15.364 12.291 14.8795 12.776 14.8795 13.368C14.8795 13.96 15.364 14.445 15.9562 14.445H17.8404C18.4326 14.445 18.9171 13.96 18.9171 13.368C18.9171 12.776 18.4326 12.291 17.8404 12.291Z" fill="#032539"/>
<path d="M25.334 12.291H23.4498C22.8577 12.291 22.3732 12.776 22.3732 13.368C22.3732 13.96 22.8577 14.445 23.4498 14.445H25.334C25.9262 14.445 26.4107 13.96 26.4107 13.368C26.4107 12.776 25.937 12.291 25.334 12.291Z" fill="#032539"/>
<path d="M32.8923 12.291H31.008C30.4159 12.291 29.9314 12.776 29.9314 13.368C29.9314 13.96 30.4159 14.445 31.008 14.445H32.8923C33.4845 14.445 33.9692 13.96 33.9692 13.368C33.9692 12.776 33.4845 12.291 32.8923 12.291Z" fill="#032539"/>
<path d="M17.8404 19.723H15.9562C15.364 19.723 14.8795 20.208 14.8795 20.8C14.8795 21.393 15.364 21.878 15.9562 21.878H17.8404C18.4326 21.878 18.9171 21.393 18.9171 20.8C18.9171 20.208 18.4326 19.723 17.8404 19.723Z" fill="#032539"/>
<path d="M10.293 19.723H8.39801C7.80581 19.723 7.3213 20.208 7.3213 20.8C7.3213 21.393 7.80581 21.878 8.39801 21.878H10.2821C10.8743 21.878 11.3588 21.393 11.3588 20.8C11.3588 20.208 10.8851 19.723 10.293 19.723Z" fill="#032539"/>
<path d="M25.334 19.723H23.4498C22.8577 19.723 22.3732 20.208 22.3732 20.8C22.3732 21.393 22.8577 21.878 23.4498 21.878H25.334C25.9262 21.878 26.4107 21.393 26.4107 20.8C26.4107 20.208 25.937 19.723 25.334 19.723Z" fill="#032539"/>
<path d="M32.8923 19.723H31.008C30.4159 19.723 29.9314 20.208 29.9314 20.8C29.9314 21.393 30.4159 21.878 31.008 21.878H32.8923C33.4845 21.878 33.9692 21.393 33.9692 20.8C33.9692 20.208 33.4845 19.723 32.8923 19.723Z" fill="#032539"/>
<path d="M17.8404 27.0481H15.9562C15.364 27.0481 14.8795 27.5321 14.8795 28.1251C14.8795 28.7171 15.364 29.2021 15.9562 29.2021H17.8404C18.4326 29.2021 18.9171 28.7171 18.9171 28.1251C18.9171 27.5321 18.4326 27.0481 17.8404 27.0481Z" fill="#032539"/>
<path d="M10.293 27.0481H8.39801C7.80581 27.0481 7.3213 27.5321 7.3213 28.1251C7.3213 28.7171 7.80581 29.2021 8.39801 29.2021H10.2821C10.8743 29.2021 11.3588 28.7171 11.3588 28.1251C11.3588 27.5321 10.8851 27.0481 10.293 27.0481Z" fill="#032539"/>
<path d="M25.334 27.0481H23.4498C22.8577 27.0481 22.3732 27.5321 22.3732 28.1251C22.3732 28.7171 22.8577 29.2021 23.4498 29.2021H25.334C25.9262 29.2021 26.4107 28.7171 26.4107 28.1251C26.4107 27.5321 25.937 27.0481 25.334 27.0481Z" fill="#032539"/>
</svg>

