<svg width="182" height="11" viewBox="0 0 182 11" fill="none" xmlns="http://www.w3.org/2000/svg">
<g clip-path="url(#clip0)">
<path d="M23.2819 8.48578C29.0316 10.1855 35.7158 9.38028 41.7735 7.97275C43.2849 7.72424 42.708 5.4679 41.4055 5.91719C35.5814 6.69851 29.7945 6.23933 23.9952 6.19365C22.2751 6.24138 22.0045 8.10841 23.2819 8.48578Z" fill="#FA991C"/>
<path d="M75.0971 2.98074C67.5303 2.5654 59.3821 2.11859 52.574 3.62844C50.3792 4.04669 52.2126 6.83829 54.183 6.6773C61.258 6.25822 69.9421 8.88802 76.6164 6.83254C78.094 5.83709 77.425 3.10895 75.0971 2.98074Z" fill="#FA991C"/>
<path d="M93.4168 7.60321C96.5163 8.40178 99.9273 8.08274 103.131 8.50877C107.213 8.76191 111.191 9.38758 115.093 8.79582C117.238 8.54985 117.19 5.74243 115.149 5.61586C111.454 5.46254 107.476 4.83686 103.885 4.31101C100.682 3.88498 96.8074 2.88676 93.5762 4.0507C91.4314 4.29667 91.4802 7.10426 93.4168 7.60321Z" fill="#FA991C"/>
<path d="M155.208 5.92094C151.447 4.99492 147.973 5.38926 144.269 5.2686C139.986 5.21367 136.107 5.38337 132.054 5.84343C130.896 5.97488 131.413 7.81023 132.976 7.90342C136.45 7.50908 139.979 7.9201 143.684 8.04075C147.388 8.16141 151.727 9.0217 155.201 8.62736C156.938 8.43019 157.175 6.23876 155.208 5.92094Z" fill="#FA991C"/>
<path d="M163.052 6.9999C170.415 9.45433 178.869 8.63623 186.506 6.99991C188.415 6.72719 187.596 3.72729 185.96 4.27273C178.597 5.09088 171.233 4.27272 163.87 4C161.688 4 161.416 6.45491 163.052 6.9999Z" fill="#FA991C"/>
</g>
<defs>
<clipPath id="clip0">
<rect width="182" height="11" fill="white"/>
</clipPath>
</defs>
</svg>
