<svg width="408" height="17" viewBox="0 0 408 17" fill="none" xmlns="http://www.w3.org/2000/svg">
<path d="M110.297 11.4095C112.997 12.3461 115.697 11.8778 118.397 11.8778C121.096 11.8778 124.182 11.8778 126.882 11.4095C128.81 11.4095 128.81 7.66281 126.882 7.66281C124.182 7.66281 121.096 7.66281 118.397 7.19448C115.697 7.19448 112.997 6.72615 110.297 7.66281C108.754 7.66281 108.754 10.4728 110.297 11.4095Z" fill="#FA991C"/>
<path d="M323.558 11.4033C326.596 12.0539 329.836 11.3208 332.941 11.5102C336.874 11.401 340.739 11.7531 344.425 10.6401C346.458 10.1243 346.167 6.73316 344.201 6.78776C340.649 6.97826 336.784 6.62623 333.298 6.35553C330.193 6.16615 326.395 5.35291 323.401 7.0897C321.368 7.60551 321.659 10.9968 323.558 11.4033Z" fill="#FA991C"/>
<path d="M359.163 13.3825C364.378 14.78 371.537 11.9067 375.888 9.07967C377.777 7.98879 376.141 5.15462 374.251 6.24549C371.89 7.60908 369.255 8.50031 366.72 9.019C364.186 9.53769 361.378 9.58402 358.744 10.4753C357.426 10.9209 358.045 13.0831 359.163 13.3825Z" fill="#FA991C"/>
<path d="M303.276 6.92084C299.661 5.99482 296.321 6.38916 292.759 6.2685C288.64 6.21357 284.911 6.38327 281.014 6.84333C279.9 6.97478 280.397 8.81013 281.9 8.90332C285.24 8.50898 288.634 8.92 292.196 9.04065C295.758 9.16131 299.93 10.0216 303.27 9.62726C304.94 9.43009 305.168 7.23866 303.276 6.92084Z" fill="#FA991C"/>
<path d="M238.667 9.81216C246.03 12.2666 254.484 11.4485 262.121 9.81217C264.03 9.53945 263.211 6.53955 261.575 7.08499C254.212 7.90314 246.848 7.08498 239.485 6.81226C237.303 6.81226 237.031 9.26717 238.667 9.81216Z" fill="#FA991C"/>
<path d="M213.17 4.98066C205.895 4.56532 198.06 4.11851 191.513 5.62836C189.403 6.04661 191.166 8.83821 193.061 8.67723C199.863 8.25816 208.214 10.8879 214.631 8.83246C216.052 7.83701 215.409 5.10888 213.17 4.98066Z" fill="#FA991C"/>
<path d="M172.276 7.92084C168.661 6.99482 165.321 7.38916 161.759 7.2685C157.64 7.21357 153.911 7.38327 150.014 7.84333C148.9 7.97478 149.397 9.81013 150.9 9.90332C154.24 9.50898 157.634 9.92 161.196 10.0407C164.758 10.1613 168.93 11.0216 172.27 10.6273C173.94 10.4301 174.168 8.23866 172.276 7.92084Z" fill="#FA991C"/>
<path d="M63.8239 13.603C66.8042 14.4016 70.084 14.0825 73.1641 14.5086C77.0891 14.7617 80.9144 15.3874 84.6665 14.7956C86.7288 14.5496 86.6825 11.7422 84.72 11.6157C81.1675 11.4623 77.3423 10.8367 73.8896 10.3108C70.8095 9.88481 67.0841 8.88659 63.9772 10.0505C61.9148 10.2965 61.9618 13.1041 63.8239 13.603Z" fill="#FA991C"/>
<path d="M48.9732 10.0912C44.0319 9.75588 39.0892 10.4259 34.1479 10.4259C27.8573 10.0912 22.0168 8.7495 17.0748 6.06728C16.1763 5.73255 15.727 6.73838 16.1763 7.07311C25.611 12.4376 38.6406 17.1314 50.3217 13.4434C52.5673 12.4376 51.2195 10.0912 48.9732 10.0912Z" fill="#FA991C"/>
</svg>
